<svg width="327" height="387" xmlns="http://www.w3.org/2000/svg" xmlns:xlink="http://www.w3.org/1999/xlink" overflow="hidden"><defs><clipPath id="clip0"><rect x="642" y="430" width="327" height="387"/></clipPath></defs><g clip-path="url(#clip0)" transform="translate(-642 -430)"><path d="M680.5 503.5 752.5 431.5 968.5 431.5 968.5 647.5 896.5 719.5 680.5 719.5ZM680.5 503.5 896.5 503.5 968.5 431.5M896.5 503.5 896.5 719.5" stroke="#3B3838" stroke-width="1.33333" stroke-miterlimit="8" fill="none" fill-rule="evenodd"/><path d="M0 0 71.4728 71.4728" stroke="#333F50" stroke-width="1.33333" stroke-miterlimit="8" fill="none" fill-rule="evenodd" transform="matrix(1 0 0 -1 680.5 719.973)"/><path d="M751.5 647.5 968.147 647.5" stroke="#333F50" stroke-width="1.33333" stroke-miterlimit="8" fill="none" fill-rule="evenodd"/><path d="M752.5 431.5 752.5 647.527" stroke="#333F50" stroke-width="1.33333" stroke-miterlimit="8" fill="none" fill-rule="evenodd"/><path d="M1.5 7.49995 1.5001 208.527-1.4999 208.527-1.5 7.49996ZM-4.5 9 0 0 4.5 9ZM4.5001 207.027 0.000104987 216.027-4.4999 207.027Z" fill="#00B050" transform="matrix(6.12323e-17 1 1 -6.12323e-17 680.5 731.5)"/><text fill="#00B050" font-family="Arial,Arial_MSFontService,sans-serif" font-weight="400" font-size="19" transform="matrix(0.750803 0.660526 -0.660526 0.750803 881.405 746)">Low<tspan font-size="19" x="-0.177364" y="22.7985">(</tspan><tspan font-size="19" x="5.94092" y="22.7435">push</tspan><tspan font-size="19" x="46.5112" y="23.0128">)</tspan><tspan font-size="19" x="-153.164" y="136.08">High</tspan><tspan font-size="19" x="-153.342" y="158.878">(pull)</tspan></text><text fill="#00B050" font-family="Arial,Arial_MSFontService,sans-serif" font-weight="400" font-size="27" transform="translate(743.607 758)">Velocity<tspan font-size="27" x="-5.07336" y="32">(</tspan><tspan font-size="27" x="3.76001" y="32">latency</tspan><tspan font-size="27" x="88.26" y="32">)</tspan></text><path d="M888 717C888 711.477 892.253 707 897.5 707 902.747 707 907 711.477 907 717 907 722.523 902.747 727 897.5 727 892.253 727 888 722.523 888 717Z" fill="#FFC000" fill-rule="evenodd"/><path d="M671 717C671 711.477 675.477 707 681 707 686.523 707 691 711.477 691 717 691 722.523 686.523 727 681 727 675.477 727 671 722.523 671 717Z" fill="#FFC000" fill-rule="evenodd"/></g></svg>