<svg width="570" height="423" xmlns="http://www.w3.org/2000/svg" xmlns:xlink="http://www.w3.org/1999/xlink" overflow="hidden"><defs><clipPath id="clip0"><rect x="665" y="179" width="570" height="423"/></clipPath></defs><g clip-path="url(#clip0)" transform="translate(-665 -179)"><path d="M755.5 288.5 827.5 216.5 1043.5 216.5 1043.5 432.5 971.5 504.5 755.5 504.5ZM755.5 288.5 971.5 288.5 1043.5 216.5M971.5 288.5 971.5 504.5" stroke="#3B3838" stroke-width="1.33333" stroke-miterlimit="8" fill="none" fill-rule="evenodd"/><path d="M0 0 71.4728 71.4728" stroke="#333F50" stroke-width="1.33333" stroke-miterlimit="8" fill="none" fill-rule="evenodd" transform="matrix(1 0 0 -1 755.5 504.973)"/><path d="M826.5 432.5 1043.15 432.5" stroke="#333F50" stroke-width="1.33333" stroke-miterlimit="8" fill="none" fill-rule="evenodd"/><path d="M827.5 216.5 827.5 432.527" stroke="#333F50" stroke-width="1.33333" stroke-miterlimit="8" fill="none" fill-rule="evenodd"/><path d="M1.5 7.49995 1.5001 208.527-1.4999 208.527-1.5 7.49996ZM-4.5 9 0 0 4.5 9ZM4.5001 207.027 0.000104987 216.027-4.4999 207.027Z" fill="#ED7D31" transform="matrix(1 0 0 -1 1058.5 432.527)"/><text fill="#ED7D31" font-family="Arial,Arial_MSFontService,sans-serif" font-weight="400" font-size="19" transform="translate(1066.23 235)">Structured<tspan font-size="19" x="0" y="189">Unstructured</tspan></text><path d="M1.5 7.49995 1.5001 208.527-1.4999 208.527-1.5 7.49996ZM-4.5 9 0 0 4.5 9ZM4.5001 207.027 0.000104987 216.027-4.4999 207.027Z" fill="#00B050" transform="matrix(6.12323e-17 1 1 -6.12323e-17 755.5 516.5)"/><text fill="#00B050" font-family="Arial,Arial_MSFontService,sans-serif" font-weight="400" font-size="19" transform="matrix(0.750803 0.660526 -0.660526 0.750803 956.45 531)">Low<tspan font-size="19" x="-0.177319" y="22.7984">(</tspan><tspan font-size="19" x="5.94096" y="22.7434">push</tspan><tspan font-size="19" x="46.5113" y="23.0128">)</tspan><tspan font-size="19" x="-153.825" y="135.329">High</tspan><tspan font-size="19" x="-153.342" y="158.878">(pull)</tspan></text><path d="M1.50001 7.50002 1.5001 117.3-1.4999 117.3-1.49999 7.50002ZM-4.49999 9 0 0 4.50001 9ZM4.5001 115.8 0.000104987 124.8-4.4999 115.8Z" fill="#0070C0" transform="matrix(0.709957 0.704245 0.704245 -0.709957 734.108 289.565)"/><text fill="#0070C0" font-family="Arial,Arial_MSFontService,sans-serif" font-weight="400" font-size="19" transform="translate(692.256 285)">High<tspan font-size="19" x="71.5839" y="-82">Small</tspan><tspan fill="#00B050" font-size="27" x="128.175" y="258">Velocity</tspan><tspan fill="#00B050" font-size="27" x="123.102" y="290">(</tspan><tspan fill="#00B050" font-size="27" x="131.935" y="290">latency</tspan><tspan fill="#00B050" font-size="27" x="216.435" y="290">)</tspan><tspan fill="#ED7D31" font-size="27" x="376.52" y="33">Variety</tspan><tspan fill="#ED7D31" font-size="27" x="376.52" y="65">(data model)</tspan><tspan font-size="27" x="-10.9505" y="-40">Volume</tspan></text><path d="M961 502.5C961 497.253 965.253 493 970.5 493 975.747 493 980 497.253 980 502.5 980 507.747 975.747 512 970.5 512 965.253 512 961 507.747 961 502.5Z" fill="#FFC000" fill-rule="evenodd"/></g></svg>