<svg width="570" height="423" xmlns="http://www.w3.org/2000/svg" xmlns:xlink="http://www.w3.org/1999/xlink" overflow="hidden"><defs><clipPath id="clip0"><rect x="33" y="195" width="570" height="423"/></clipPath></defs><g clip-path="url(#clip0)" transform="translate(-33 -195)"><path d="M123.5 304.5 195.5 232.5 411.5 232.5 411.5 448.5 339.5 520.5 123.5 520.5ZM123.5 304.5 339.5 304.5 411.5 232.5M339.5 304.5 339.5 520.5" stroke="#3B3838" stroke-width="1.33333" stroke-miterlimit="8" fill="none" fill-rule="evenodd"/><path d="M0 0 71.4728 71.4728" stroke="#333F50" stroke-width="1.33333" stroke-miterlimit="8" fill="none" fill-rule="evenodd" transform="matrix(1 0 0 -1 123.5 519.973)"/><path d="M194.5 448.5 411.147 448.5" stroke="#333F50" stroke-width="1.33333" stroke-miterlimit="8" fill="none" fill-rule="evenodd"/><path d="M195.5 232.5 195.5 448.527" stroke="#333F50" stroke-width="1.33333" stroke-miterlimit="8" fill="none" fill-rule="evenodd"/><path d="M1.5 7.49995 1.5001 208.527-1.4999 208.527-1.5 7.49996ZM-4.5 9 0 0 4.5 9ZM4.5001 207.027 0.000104987 216.027-4.4999 207.027Z" fill="#ED7D31" transform="matrix(1 0 0 -1 426.5 448.527)"/><text fill="#ED7D31" font-family="Arial,Arial_MSFontService,sans-serif" font-weight="400" font-size="19" transform="translate(434.238 251)">Structured<tspan font-size="19" x="0" y="188">Unstructured</tspan></text><path d="M1.5 7.49995 1.5001 208.527-1.4999 208.527-1.5 7.49996ZM-4.5 9 0 0 4.5 9ZM4.5001 207.027 0.000104987 216.027-4.4999 207.027Z" fill="#00B050" transform="matrix(6.12323e-17 1 1 -6.12323e-17 123.5 532.5)"/><text fill="#00B050" font-family="Arial,Arial_MSFontService,sans-serif" font-weight="400" font-size="19" transform="matrix(0.750803 0.660526 -0.660526 0.750803 324.458 546)">Low<tspan font-size="19" x="0.483184" y="23.5492">(</tspan><tspan font-size="19" x="6.60146" y="23.4943">push</tspan><tspan font-size="19" x="46.5113" y="23.0128">)</tspan><tspan font-size="19" x="-153.164" y="136.08">High</tspan><tspan font-size="19" x="-153.342" y="158.878">(pull)</tspan></text><path d="M1.50001 7.50002 1.5001 117.3-1.4999 117.3-1.49999 7.50002ZM-4.49999 9 0 0 4.50001 9ZM4.5001 115.8 0.000104987 124.8-4.4999 115.8Z" fill="#0070C0" transform="matrix(0.709957 0.704245 0.704245 -0.709957 102.116 305.233)"/><text fill="#0070C0" font-family="Arial,Arial_MSFontService,sans-serif" font-weight="400" font-size="19" transform="translate(60.2639 300)">High<tspan font-size="19" x="71.5838" y="-81">Small</tspan><tspan fill="#00B050" font-size="27" x="128.175" y="259">Velocity</tspan><tspan fill="#00B050" font-size="27" x="123.102" y="291">(</tspan><tspan fill="#00B050" font-size="27" x="131.935" y="291">latency</tspan><tspan fill="#00B050" font-size="27" x="216.435" y="291">)</tspan><tspan fill="#ED7D31" font-size="27" x="376.52" y="34">Variety</tspan><tspan fill="#ED7D31" font-size="27" x="376.52" y="66">(data model)</tspan><tspan font-size="27" x="-10.9506" y="-39">Volume</tspan></text><path d="M113 518.5C113 513.253 117.477 509 123 509 128.523 509 133 513.253 133 518.5 133 523.747 128.523 528 123 528 117.477 528 113 523.747 113 518.5Z" fill="#FFC000" fill-rule="evenodd"/></g></svg>