<svg width="527" height="318" xmlns="http://www.w3.org/2000/svg" xmlns:xlink="http://www.w3.org/1999/xlink" overflow="hidden"><defs><clipPath id="clip0"><rect x="117" y="315" width="527" height="318"/></clipPath><radialGradient cx="828675" cy="914400" r="1.23403e+06" fx="828675" fy="914400" gradientUnits="userSpaceOnUse" spreadMethod="pad" id="fill1" gradientTransform="matrix(0.000104987 0 0 0.000104987 272 346)"><stop offset="0" stop-color="#002060"/><stop offset="0.5" stop-color="#BFCBF0"/><stop offset="1" stop-color="#FFFFFF" stop-opacity="0.309804"/></radialGradient><clipPath id="clip2"><rect x="337" y="367" width="42" height="42"/></clipPath><clipPath id="clip3"><rect x="337" y="367" width="42" height="42"/></clipPath><clipPath id="clip4"><rect x="337" y="367" width="42" height="42"/></clipPath><clipPath id="clip5"><rect x="491" y="316" width="115" height="114"/></clipPath><clipPath id="clip6"><rect x="491" y="316" width="115" height="114"/></clipPath><clipPath id="clip7"><rect x="491" y="316" width="115" height="114"/></clipPath><clipPath id="clip8"><rect x="117" y="316" width="115" height="114"/></clipPath><clipPath id="clip9"><rect x="117" y="316" width="115" height="114"/></clipPath><clipPath id="clip10"><rect x="117" y="316" width="115" height="114"/></clipPath><clipPath id="clip11"><rect x="255" y="367" width="43" height="42"/></clipPath><clipPath id="clip12"><rect x="255" y="367" width="43" height="42"/></clipPath><clipPath id="clip13"><rect x="255" y="367" width="43" height="42"/></clipPath><clipPath id="clip14"><rect x="418" y="367" width="42" height="42"/></clipPath><clipPath id="clip15"><rect x="418" y="367" width="42" height="42"/></clipPath><clipPath id="clip16"><rect x="418" y="367" width="42" height="42"/></clipPath></defs><g clip-path="url(#clip0)" transform="translate(-117 -315)"><path d="M272 442C272 388.981 310.951 346 359 346 407.049 346 446 388.981 446 442 446 495.019 407.049 538 359 538 310.951 538 272 495.019 272 442Z" fill="url(#fill1)" fill-rule="evenodd"/><rect x="242" y="342" width="226" height="84" fill="#FFFFFF"/><rect x="171.5" y="427.5" width="374" height="115" stroke="#000000" stroke-width="0.666667" stroke-miterlimit="8" stroke-dasharray="2 0.666667" fill="none"/><path d="M545.5 426.5 634.991 515.894" stroke="#000000" stroke-width="0.666667" stroke-miterlimit="8" fill="none" fill-rule="evenodd"/><path d="M171.5 426.5 260.676 515.676" stroke="#000000" stroke-width="0.666667" stroke-miterlimit="8" stroke-dasharray="2 0.666667" fill="none" fill-rule="evenodd"/><path d="M171.5 542.5 261.1 632.1" stroke="#000000" stroke-width="0.666667" stroke-miterlimit="8" stroke-dasharray="2 0.666667" fill="none" fill-rule="evenodd"/><path d="M545.5 542.5 635.1 632.1" stroke="#000000" stroke-width="0.666667" stroke-miterlimit="8" stroke-dasharray="2 0.666667" fill="none" fill-rule="evenodd"/><rect x="260.5" y="516.5" width="374" height="115" stroke="#000000" stroke-width="0.666667" stroke-miterlimit="8" stroke-dasharray="2 0.666667" fill="none"/><g clip-path="url(#clip2)"><g clip-path="url(#clip3)"><g clip-path="url(#clip4)"><path d="M356.908 371.956C352.876 380.272 346.24 385.312 345.232 391.612 344.308 397.24 348.76 405.22 358 405.22 367.24 405.22 371.692 397.24 370.768 391.612 369.76 385.312 363.124 380.272 359.092 371.956 358.756 371.2 358.336 370.78 358 370.78 357.664 370.78 357.244 371.2 356.908 371.956Z" stroke="#0099FF" stroke-width="2.52" fill="none" fill-rule="evenodd"/><path d="M351.532 397.24C350.104 395.56 349.516 393.46 349.852 391.696 350.524 387.496 356.068 382.792 357.664 378.34" stroke="#0099FF" stroke-width="1.26" stroke-linecap="round" fill="none" fill-rule="evenodd"/></g></g></g><g clip-path="url(#clip5)"><g clip-path="url(#clip6)"><g clip-path="url(#clip7)"><path d="M76.6828 41.5922C78.2859 38.475 79.2656 34.9125 79.2656 31.1719 79.2656 18.8813 69.2906 8.90625 57 8.90625 44.7094 8.90625 34.7344 18.8813 34.7344 31.1719 34.7344 31.7062 34.7344 32.2406 34.8234 32.6859 23.3344 36.6047 15.1406 47.3813 15.1406 60.1172 15.1406 76.0594 28.1438 89.0625 44.0859 89.0625L68.1328 89.0625C81.6703 89.0625 92.625 78.1078 92.625 64.5703 92.625 54.0609 85.9453 45.0656 76.6828 41.5922Z" fill="#A0C279" transform="matrix(1.00877 0 0 1 491 316)"/><path d="M34.7344 31.1719C34.7344 31.7062 34.7344 32.2406 34.8234 32.6859 23.3344 36.6047 15.1406 47.3813 15.1406 60.1172 15.1406 76.0594 28.1438 89.0625 44.0859 89.0625L52.9922 89.0625C37.05 89.0625 24.0469 76.0594 24.0469 60.1172 24.0469 47.3813 32.2406 36.6047 43.7297 32.6859 43.7297 32.1516 43.6406 31.7062 43.6406 31.1719 43.6406 20.3953 51.3 11.4 61.4531 9.35156 60.0281 9.08437 58.5141 8.90625 57 8.90625 44.7094 8.90625 34.7344 18.8813 34.7344 31.1719Z" fill="#FFFFFF" transform="matrix(1.00877 0 0 1 491 316)"/><path d="M53.8828 111.773C54.5953 111.773 55.2188 111.15 55.2188 110.438L55.2188 90.3984 68.1328 90.3984C82.3828 90.3984 93.9609 78.8203 93.9609 64.5703 93.9609 54.3281 87.8156 44.9766 78.4641 40.8797 79.8 37.8516 80.6016 34.4672 80.6016 31.1719 80.6016 18.1687 70.0031 7.57031 57 7.57031 43.9969 7.57031 33.3984 18.1687 33.3984 31.1719 33.3984 31.35 33.3984 31.6172 33.3984 31.7953 21.6422 36.2484 13.8047 47.4703 13.8047 60.1172 13.8047 76.7719 27.4312 90.3984 44.0859 90.3984L52.5469 90.3984 52.5469 110.438C52.5469 111.15 53.1703 111.773 53.8828 111.773ZM44.0859 87.7266C28.8563 87.7266 16.4766 75.3469 16.4766 60.1172 16.4766 48.2719 24.0469 37.7625 35.1797 33.9328 35.7141 33.7547 36.1594 33.2203 36.0703 32.5969 36.0703 32.1516 35.9813 31.6172 35.9813 31.1719 36.0703 19.5938 45.4219 10.2422 57 10.2422 68.5781 10.2422 77.9297 19.5938 77.9297 31.1719 77.9297 34.5562 77.1281 37.9406 75.525 40.9688 75.3469 41.325 75.3469 41.6812 75.4359 42.0375 75.6141 42.3937 75.8812 42.6609 76.2375 42.8391 85.2328 46.2234 91.2891 54.9516 91.2891 64.5703 91.2891 77.3063 80.8688 87.7266 68.1328 87.7266L55.2188 87.7266 55.2188 78.9094 72.3187 70.3594C72.9422 70.0031 73.2094 69.2016 72.9422 68.5781 72.5859 67.9547 71.7844 67.6875 71.1609 67.9547L55.2188 75.8812 55.2188 40.0781C55.2188 39.3656 54.5953 38.7422 53.8828 38.7422 53.1703 38.7422 52.5469 39.3656 52.5469 40.0781L52.5469 58.0687 36.6938 50.1422C36.0703 49.7859 35.2687 50.0531 34.9125 50.7656 34.5562 51.3891 34.8234 52.1906 35.5359 52.5469L52.5469 61.0969 52.5469 87.7266 44.0859 87.7266Z" fill="#62355C" transform="matrix(1.00877 0 0 1 491 316)"/></g></g></g><g clip-path="url(#clip8)"><g clip-path="url(#clip9)"><g clip-path="url(#clip10)"><path d="M76.6828 41.5922C78.2859 38.475 79.2656 34.9125 79.2656 31.1719 79.2656 18.8813 69.2906 8.90625 57 8.90625 44.7094 8.90625 34.7344 18.8813 34.7344 31.1719 34.7344 31.7062 34.7344 32.2406 34.8234 32.6859 23.3344 36.6047 15.1406 47.3813 15.1406 60.1172 15.1406 76.0594 28.1438 89.0625 44.0859 89.0625L68.1328 89.0625C81.6703 89.0625 92.625 78.1078 92.625 64.5703 92.625 54.0609 85.9453 45.0656 76.6828 41.5922Z" fill="#A0C279" transform="matrix(1.00877 0 0 1 117 316)"/><path d="M34.7344 31.1719C34.7344 31.7062 34.7344 32.2406 34.8234 32.6859 23.3344 36.6047 15.1406 47.3813 15.1406 60.1172 15.1406 76.0594 28.1438 89.0625 44.0859 89.0625L52.9922 89.0625C37.05 89.0625 24.0469 76.0594 24.0469 60.1172 24.0469 47.3813 32.2406 36.6047 43.7297 32.6859 43.7297 32.1516 43.6406 31.7062 43.6406 31.1719 43.6406 20.3953 51.3 11.4 61.4531 9.35156 60.0281 9.08437 58.5141 8.90625 57 8.90625 44.7094 8.90625 34.7344 18.8813 34.7344 31.1719Z" fill="#FFFFFF" transform="matrix(1.00877 0 0 1 117 316)"/><path d="M53.8828 111.773C54.5953 111.773 55.2188 111.15 55.2188 110.438L55.2188 90.3984 68.1328 90.3984C82.3828 90.3984 93.9609 78.8203 93.9609 64.5703 93.9609 54.3281 87.8156 44.9766 78.4641 40.8797 79.8 37.8516 80.6016 34.4672 80.6016 31.1719 80.6016 18.1687 70.0031 7.57031 57 7.57031 43.9969 7.57031 33.3984 18.1687 33.3984 31.1719 33.3984 31.35 33.3984 31.6172 33.3984 31.7953 21.6422 36.2484 13.8047 47.4703 13.8047 60.1172 13.8047 76.7719 27.4312 90.3984 44.0859 90.3984L52.5469 90.3984 52.5469 110.438C52.5469 111.15 53.1703 111.773 53.8828 111.773ZM44.0859 87.7266C28.8563 87.7266 16.4766 75.3469 16.4766 60.1172 16.4766 48.2719 24.0469 37.7625 35.1797 33.9328 35.7141 33.7547 36.1594 33.2203 36.0703 32.5969 36.0703 32.1516 35.9813 31.6172 35.9813 31.1719 36.0703 19.5938 45.4219 10.2422 57 10.2422 68.5781 10.2422 77.9297 19.5938 77.9297 31.1719 77.9297 34.5562 77.1281 37.9406 75.525 40.9688 75.3469 41.325 75.3469 41.6812 75.4359 42.0375 75.6141 42.3937 75.8812 42.6609 76.2375 42.8391 85.2328 46.2234 91.2891 54.9516 91.2891 64.5703 91.2891 77.3063 80.8688 87.7266 68.1328 87.7266L55.2188 87.7266 55.2188 78.9094 72.3187 70.3594C72.9422 70.0031 73.2094 69.2016 72.9422 68.5781 72.5859 67.9547 71.7844 67.6875 71.1609 67.9547L55.2188 75.8812 55.2188 40.0781C55.2188 39.3656 54.5953 38.7422 53.8828 38.7422 53.1703 38.7422 52.5469 39.3656 52.5469 40.0781L52.5469 58.0687 36.6938 50.1422C36.0703 49.7859 35.2687 50.0531 34.9125 50.7656 34.5562 51.3891 34.8234 52.1906 35.5359 52.5469L52.5469 61.0969 52.5469 87.7266 44.0859 87.7266Z" fill="#62355C" transform="matrix(1.00877 0 0 1 117 316)"/></g></g></g><g clip-path="url(#clip11)"><g clip-path="url(#clip12)"><g clip-path="url(#clip13)"><path d="M19.908 4.956C15.876 13.272 9.24 18.312 8.232 24.612 7.308 30.24 11.76 38.22 21 38.22 30.24 38.22 34.692 30.24 33.768 24.612 32.76 18.312 26.124 13.272 22.092 4.956 21.756 4.2 21.336 3.78 21 3.78 20.664 3.78 20.244 4.2 19.908 4.956Z" stroke="#0099FF" stroke-width="2.52" fill="none" fill-rule="evenodd" transform="matrix(1.02381 0 0 1 255 367)"/><path d="M14.532 30.24C13.104 28.56 12.516 26.46 12.852 24.696 13.524 20.496 19.068 15.792 20.664 11.34" stroke="#0099FF" stroke-width="1.26" stroke-linecap="round" fill="none" fill-rule="evenodd" transform="matrix(1.02381 0 0 1 255 367)"/></g></g></g><g clip-path="url(#clip14)"><g clip-path="url(#clip15)"><g clip-path="url(#clip16)"><path d="M437.908 371.956C433.876 380.272 427.24 385.312 426.232 391.612 425.308 397.24 429.76 405.22 439 405.22 448.24 405.22 452.692 397.24 451.768 391.612 450.76 385.312 444.124 380.272 440.092 371.956 439.756 371.2 439.336 370.78 439 370.78 438.664 370.78 438.244 371.2 437.908 371.956Z" stroke="#0099FF" stroke-width="2.52" fill="none" fill-rule="evenodd"/><path d="M432.532 397.24C431.104 395.56 430.516 393.46 430.852 391.696 431.524 387.496 437.068 382.792 438.664 378.34" stroke="#0099FF" stroke-width="1.26" stroke-linecap="round" fill="none" fill-rule="evenodd"/></g></g></g><path d="M546.971 428.029 634.815 515.872 633.872 516.815 546.029 428.971ZM632.632 507.218 635.28 517.28 625.218 514.632C624.862 514.538 624.649 514.173 624.743 513.817 624.836 513.461 625.201 513.249 625.557 513.342L634.514 515.699 633.699 516.514 631.342 507.557C631.249 507.201 631.461 506.836 631.817 506.743 632.173 506.649 632.538 506.862 632.632 507.218Z"/><path d="M0.666667-6.08556e-07 0.66677 113.692-0.666563 113.692-0.666667 6.08556e-07ZM5.24262 106.028 0.000105151 115.015-5.24242 106.028C-5.42794 105.71-5.32052 105.302-5.00248 105.116-4.68445 104.931-4.27624 105.038-4.09072 105.356L0.575956 113.356-0.575749 113.356 4.09091 105.356C4.27643 105.038 4.68464 104.931 5.00268 105.116 5.32071 105.302 5.42814 105.71 5.24262 106.028Z" transform="matrix(-1 0 0 1 545.5 428.5)"/><text font-family="Calibri,Calibri_MSFontService,sans-serif" font-weight="400" font-size="16" transform="translate(552.198 429)">0<tspan font-size="16" x="-34.3663" y="110">-</tspan><tspan font-size="16" x="-29.533" y="110">60</tspan><tspan font-size="16" x="61.1622" y="101">90</tspan><tspan font-size="16" x="-34.3663" y="36">-</tspan><tspan font-size="16" x="-29.533" y="36">20</tspan></text></g></svg>