<svg width="527" height="323" xmlns="http://www.w3.org/2000/svg" xmlns:xlink="http://www.w3.org/1999/xlink" overflow="hidden"><defs><clipPath id="clip0"><rect x="695" y="315" width="527" height="323"/></clipPath><clipPath id="clip1"><rect x="914" y="367" width="43" height="43"/></clipPath><clipPath id="clip2"><rect x="914" y="367" width="43" height="43"/></clipPath><clipPath id="clip3"><rect x="914" y="367" width="43" height="43"/></clipPath><clipPath id="clip4"><rect x="1069" y="316" width="115" height="115"/></clipPath><clipPath id="clip5"><rect x="1069" y="316" width="115" height="115"/></clipPath><clipPath id="clip6"><rect x="1069" y="316" width="115" height="115"/></clipPath><clipPath id="clip7"><rect x="695" y="316" width="115" height="114"/></clipPath><clipPath id="clip8"><rect x="695" y="316" width="115" height="114"/></clipPath><clipPath id="clip9"><rect x="695" y="316" width="115" height="114"/></clipPath><clipPath id="clip10"><rect x="833" y="367" width="42" height="43"/></clipPath><clipPath id="clip11"><rect x="833" y="367" width="42" height="43"/></clipPath><clipPath id="clip12"><rect x="833" y="367" width="42" height="43"/></clipPath><clipPath id="clip13"><rect x="996" y="367" width="42" height="43"/></clipPath><clipPath id="clip14"><rect x="996" y="367" width="42" height="43"/></clipPath><clipPath id="clip15"><rect x="996" y="367" width="42" height="43"/></clipPath></defs><g clip-path="url(#clip0)" transform="translate(-695 -315)"><rect x="749.5" y="427.5" width="374" height="115" stroke="#000000" stroke-width="0.666667" stroke-miterlimit="8" stroke-dasharray="2 0.666667" fill="none"/><path d="M1123.5 426.5 1212.99 515.894" stroke="#000000" stroke-width="0.666667" stroke-miterlimit="8" fill="none" fill-rule="evenodd"/><path d="M749.5 427.5 838.676 516.676" stroke="#000000" stroke-width="0.666667" stroke-miterlimit="8" stroke-dasharray="2 0.666667" fill="none" fill-rule="evenodd"/><path d="M749.5 542.5 839.1 632.1" stroke="#000000" stroke-width="0.666667" stroke-miterlimit="8" stroke-dasharray="2 0.666667" fill="none" fill-rule="evenodd"/><path d="M1122.5 542.5 1212.1 632.1" stroke="#000000" stroke-width="0.666667" stroke-miterlimit="8" stroke-dasharray="2 0.666667" fill="none" fill-rule="evenodd"/><rect x="838.5" y="516.5" width="374" height="115" stroke="#000000" stroke-width="0.666667" stroke-miterlimit="8" stroke-dasharray="2 0.666667" fill="none"/><path d="M936.5 461.5 1026.1 551.1" stroke="#C55A11" stroke-miterlimit="8" stroke-dasharray="4 3" fill="none" fill-rule="evenodd"/><path d="M935.5 541.5 1025.1 631.1" stroke="#C55A11" stroke-miterlimit="8" stroke-dasharray="4 3" fill="none" fill-rule="evenodd"/><path d="M1025.5 516.5 1025.5 631.7" stroke="#C55A11" stroke-miterlimit="8" stroke-dasharray="4 3" fill="none" fill-rule="evenodd"/><path d="M936.5 427.5 936.5 542.7" stroke="#C55A11" stroke-miterlimit="8" stroke-dasharray="4 3" fill="none" fill-rule="evenodd"/><path d="M931.5 461.5C931.5 458.739 933.739 456.5 936.5 456.5 939.261 456.5 941.5 458.739 941.5 461.5 941.5 464.261 939.261 466.5 936.5 466.5 933.739 466.5 931.5 464.261 931.5 461.5Z" stroke="#AE5A21" stroke-width="1.33333" stroke-miterlimit="8" fill="#ED7D31" fill-rule="evenodd"/><path d="M931.5 542.5C931.5 539.739 933.739 537.5 936.5 537.5 939.261 537.5 941.5 539.739 941.5 542.5 941.5 545.261 939.261 547.5 936.5 547.5 933.739 547.5 931.5 545.261 931.5 542.5Z" stroke="#AE5A21" stroke-width="1.33333" stroke-miterlimit="8" fill="#ED7D31" fill-rule="evenodd"/><path d="M1020.5 632.5C1020.5 629.739 1022.74 627.5 1025.5 627.5 1028.26 627.5 1030.5 629.739 1030.5 632.5 1030.5 635.261 1028.26 637.5 1025.5 637.5 1022.74 637.5 1020.5 635.261 1020.5 632.5Z" stroke="#AE5A21" stroke-width="1.33333" stroke-miterlimit="8" fill="#ED7D31" fill-rule="evenodd"/><path d="M1020.5 551C1020.5 548.515 1022.74 546.5 1025.5 546.5 1028.26 546.5 1030.5 548.515 1030.5 551 1030.5 553.485 1028.26 555.5 1025.5 555.5 1022.74 555.5 1020.5 553.485 1020.5 551Z" stroke="#AE5A21" stroke-width="1.33333" stroke-miterlimit="8" fill="#ED7D31" fill-rule="evenodd"/><g clip-path="url(#clip1)"><g clip-path="url(#clip2)"><g clip-path="url(#clip3)"><path d="M934.382 372.074C930.254 380.588 923.46 385.748 922.428 392.198 921.482 397.96 926.04 406.13 935.5 406.13 944.96 406.13 949.518 397.96 948.572 392.198 947.54 385.748 940.746 380.588 936.618 372.074 936.274 371.3 935.844 370.87 935.5 370.87 935.156 370.87 934.726 371.3 934.382 372.074Z" stroke="#0099FF" stroke-width="2.58" fill="none" fill-rule="evenodd"/><path d="M928.878 397.96C927.416 396.24 926.814 394.09 927.158 392.284 927.846 387.984 933.522 383.168 935.156 378.61" stroke="#0099FF" stroke-width="1.29" stroke-linecap="round" fill="none" fill-rule="evenodd"/></g></g></g><g clip-path="url(#clip4)"><g clip-path="url(#clip5)"><g clip-path="url(#clip6)"><path d="M1146.36 357.957C1147.97 354.813 1148.96 351.219 1148.96 347.445 1148.96 335.047 1138.9 324.984 1126.5 324.984 1114.1 324.984 1104.04 335.047 1104.04 347.445 1104.04 347.984 1104.04 348.523 1104.13 348.973 1092.54 352.926 1084.27 363.797 1084.27 376.645 1084.27 392.727 1097.39 405.844 1113.47 405.844L1137.73 405.844C1151.39 405.844 1162.44 394.793 1162.44 381.137 1162.44 370.535 1155.7 361.461 1146.36 357.957Z" fill="#A0C279"/><path d="M1104.04 347.445C1104.04 347.984 1104.04 348.523 1104.13 348.973 1092.54 352.926 1084.27 363.797 1084.27 376.645 1084.27 392.727 1097.39 405.844 1113.47 405.844L1122.46 405.844C1106.38 405.844 1093.26 392.727 1093.26 376.645 1093.26 363.797 1101.52 352.926 1113.11 348.973 1113.11 348.434 1113.02 347.984 1113.02 347.445 1113.02 336.574 1120.75 327.5 1130.99 325.434 1129.55 325.164 1128.03 324.984 1126.5 324.984 1114.1 324.984 1104.04 335.047 1104.04 347.445Z" fill="#FFFFFF"/><path d="M1123.36 428.754C1124.07 428.754 1124.7 428.125 1124.7 427.406L1124.7 407.191 1137.73 407.191C1152.11 407.191 1163.79 395.512 1163.79 381.137 1163.79 370.805 1157.59 361.371 1148.15 357.238 1149.5 354.184 1150.31 350.77 1150.31 347.445 1150.31 334.328 1139.62 323.637 1126.5 323.637 1113.38 323.637 1102.69 334.328 1102.69 347.445 1102.69 347.625 1102.69 347.895 1102.69 348.074 1090.83 352.566 1082.93 363.887 1082.93 376.645 1082.93 393.445 1096.67 407.191 1113.47 407.191L1122.01 407.191 1122.01 427.406C1122.01 428.125 1122.64 428.754 1123.36 428.754ZM1113.47 404.496C1098.11 404.496 1085.62 392.008 1085.62 376.645 1085.62 364.695 1093.26 354.094 1104.49 350.23 1105.03 350.051 1105.48 349.512 1105.39 348.883 1105.39 348.434 1105.3 347.895 1105.3 347.445 1105.39 335.766 1114.82 326.332 1126.5 326.332 1138.18 326.332 1147.61 335.766 1147.61 347.445 1147.61 350.859 1146.8 354.273 1145.19 357.328 1145.01 357.688 1145.01 358.047 1145.1 358.406 1145.28 358.766 1145.55 359.035 1145.91 359.215 1154.98 362.629 1161.09 371.434 1161.09 381.137 1161.09 393.984 1150.58 404.496 1137.73 404.496L1124.7 404.496 1124.7 395.602 1141.95 386.977C1142.58 386.617 1142.85 385.809 1142.58 385.18 1142.22 384.551 1141.41 384.281 1140.79 384.551L1124.7 392.547 1124.7 356.43C1124.7 355.711 1124.07 355.082 1123.36 355.082 1122.64 355.082 1122.01 355.711 1122.01 356.43L1122.01 374.578 1106.02 366.582C1105.39 366.223 1104.58 366.492 1104.22 367.211 1103.86 367.84 1104.13 368.648 1104.85 369.008L1122.01 377.633 1122.01 404.496 1113.47 404.496Z" fill="#62355C"/></g></g></g><g clip-path="url(#clip7)"><g clip-path="url(#clip8)"><g clip-path="url(#clip9)"><path d="M76.6828 41.5922C78.2859 38.475 79.2656 34.9125 79.2656 31.1719 79.2656 18.8813 69.2906 8.90625 57 8.90625 44.7094 8.90625 34.7344 18.8813 34.7344 31.1719 34.7344 31.7062 34.7344 32.2406 34.8234 32.6859 23.3344 36.6047 15.1406 47.3813 15.1406 60.1172 15.1406 76.0594 28.1438 89.0625 44.0859 89.0625L68.1328 89.0625C81.6703 89.0625 92.625 78.1078 92.625 64.5703 92.625 54.0609 85.9453 45.0656 76.6828 41.5922Z" fill="#A0C279" transform="matrix(1.00877 0 0 1 695 316)"/><path d="M34.7344 31.1719C34.7344 31.7062 34.7344 32.2406 34.8234 32.6859 23.3344 36.6047 15.1406 47.3813 15.1406 60.1172 15.1406 76.0594 28.1438 89.0625 44.0859 89.0625L52.9922 89.0625C37.05 89.0625 24.0469 76.0594 24.0469 60.1172 24.0469 47.3813 32.2406 36.6047 43.7297 32.6859 43.7297 32.1516 43.6406 31.7062 43.6406 31.1719 43.6406 20.3953 51.3 11.4 61.4531 9.35156 60.0281 9.08437 58.5141 8.90625 57 8.90625 44.7094 8.90625 34.7344 18.8813 34.7344 31.1719Z" fill="#FFFFFF" transform="matrix(1.00877 0 0 1 695 316)"/><path d="M53.8828 111.773C54.5953 111.773 55.2188 111.15 55.2188 110.438L55.2188 90.3984 68.1328 90.3984C82.3828 90.3984 93.9609 78.8203 93.9609 64.5703 93.9609 54.3281 87.8156 44.9766 78.4641 40.8797 79.8 37.8516 80.6016 34.4672 80.6016 31.1719 80.6016 18.1687 70.0031 7.57031 57 7.57031 43.9969 7.57031 33.3984 18.1687 33.3984 31.1719 33.3984 31.35 33.3984 31.6172 33.3984 31.7953 21.6422 36.2484 13.8047 47.4703 13.8047 60.1172 13.8047 76.7719 27.4312 90.3984 44.0859 90.3984L52.5469 90.3984 52.5469 110.438C52.5469 111.15 53.1703 111.773 53.8828 111.773ZM44.0859 87.7266C28.8563 87.7266 16.4766 75.3469 16.4766 60.1172 16.4766 48.2719 24.0469 37.7625 35.1797 33.9328 35.7141 33.7547 36.1594 33.2203 36.0703 32.5969 36.0703 32.1516 35.9813 31.6172 35.9813 31.1719 36.0703 19.5938 45.4219 10.2422 57 10.2422 68.5781 10.2422 77.9297 19.5938 77.9297 31.1719 77.9297 34.5562 77.1281 37.9406 75.525 40.9688 75.3469 41.325 75.3469 41.6812 75.4359 42.0375 75.6141 42.3937 75.8812 42.6609 76.2375 42.8391 85.2328 46.2234 91.2891 54.9516 91.2891 64.5703 91.2891 77.3063 80.8688 87.7266 68.1328 87.7266L55.2188 87.7266 55.2188 78.9094 72.3187 70.3594C72.9422 70.0031 73.2094 69.2016 72.9422 68.5781 72.5859 67.9547 71.7844 67.6875 71.1609 67.9547L55.2188 75.8812 55.2188 40.0781C55.2188 39.3656 54.5953 38.7422 53.8828 38.7422 53.1703 38.7422 52.5469 39.3656 52.5469 40.0781L52.5469 58.0687 36.6938 50.1422C36.0703 49.7859 35.2687 50.0531 34.9125 50.7656 34.5562 51.3891 34.8234 52.1906 35.5359 52.5469L52.5469 61.0969 52.5469 87.7266 44.0859 87.7266Z" fill="#62355C" transform="matrix(1.00877 0 0 1 695 316)"/></g></g></g><g clip-path="url(#clip10)"><g clip-path="url(#clip11)"><g clip-path="url(#clip12)"><path d="M19.908 4.956C15.876 13.272 9.24 18.312 8.232 24.612 7.308 30.24 11.76 38.22 21 38.22 30.24 38.22 34.692 30.24 33.768 24.612 32.76 18.312 26.124 13.272 22.092 4.956 21.756 4.2 21.336 3.78 21 3.78 20.664 3.78 20.244 4.2 19.908 4.956Z" stroke="#0099FF" stroke-width="2.52" fill="none" fill-rule="evenodd" transform="matrix(1 0 0 1.02381 833 367)"/><path d="M14.532 30.24C13.104 28.56 12.516 26.46 12.852 24.696 13.524 20.496 19.068 15.792 20.664 11.34" stroke="#0099FF" stroke-width="1.26" stroke-linecap="round" fill="none" fill-rule="evenodd" transform="matrix(1 0 0 1.02381 833 367)"/></g></g></g><g clip-path="url(#clip13)"><g clip-path="url(#clip14)"><g clip-path="url(#clip15)"><path d="M19.908 4.956C15.876 13.272 9.24 18.312 8.232 24.612 7.308 30.24 11.76 38.22 21 38.22 30.24 38.22 34.692 30.24 33.768 24.612 32.76 18.312 26.124 13.272 22.092 4.956 21.756 4.2 21.336 3.78 21 3.78 20.664 3.78 20.244 4.2 19.908 4.956Z" stroke="#0099FF" stroke-width="2.52" fill="none" fill-rule="evenodd" transform="matrix(1 0 0 1.02381 996 367)"/><path d="M14.532 30.24C13.104 28.56 12.516 26.46 12.852 24.696 13.524 20.496 19.068 15.792 20.664 11.34" stroke="#0099FF" stroke-width="1.26" stroke-linecap="round" fill="none" fill-rule="evenodd" transform="matrix(1 0 0 1.02381 996 367)"/></g></g></g><path d="M1124.97 428.029 1212.81 515.872 1211.87 516.815 1124.03 428.971ZM1210.63 507.218 1213.28 517.28 1203.22 514.632C1202.86 514.538 1202.65 514.173 1202.74 513.817 1202.84 513.461 1203.2 513.249 1203.56 513.342L1212.51 515.699 1211.7 516.514 1209.34 507.557C1209.25 507.201 1209.46 506.836 1209.82 506.743 1210.17 506.649 1210.54 506.862 1210.63 507.218Z"/><path d="M0.666667-6.08556e-07 0.66677 113.692-0.666563 113.692-0.666667 6.08556e-07ZM5.24262 106.028 0.000105151 115.015-5.24242 106.028C-5.42794 105.71-5.32052 105.302-5.00248 105.116-4.68445 104.931-4.27624 105.038-4.09072 105.356L0.575956 113.356-0.575749 113.356 4.09091 105.356C4.27643 105.038 4.68464 104.931 5.00268 105.116 5.32071 105.302 5.42814 105.71 5.24262 106.028Z" transform="matrix(-1 0 0 1 1123.5 428.5)"/><text font-family="Calibri,Calibri_MSFontService,sans-serif" font-weight="400" font-size="16" transform="translate(1130.11 429)">0<tspan font-size="16" x="-34.3662" y="110">-</tspan><tspan font-size="16" x="-29.533" y="110">60</tspan><tspan font-size="16" x="61.1622" y="101">90</tspan><tspan font-size="16" x="-34.3662" y="36">-</tspan><tspan font-size="16" x="-29.533" y="36">20</tspan></text></g></svg>