<svg width="1099" height="453" xmlns="http://www.w3.org/2000/svg" xmlns:xlink="http://www.w3.org/1999/xlink" overflow="hidden"><defs><clipPath id="clip0"><rect x="63" y="58" width="1099" height="453"/></clipPath></defs><g clip-path="url(#clip0)" transform="translate(-63 -58)"><rect x="119" y="86" width="166" height="41" fill="#8497B0"/><text fill="#FFFFFF" font-family="Verdana,Verdana_MSFontService,sans-serif" font-weight="400" font-size="19" transform="translate(145.267 114)">Applications</text><rect x="119" y="140" width="166" height="42" fill="#8497B0"/><text fill="#FFFFFF" font-family="Verdana,Verdana_MSFontService,sans-serif" font-weight="400" font-size="19" transform="translate(179.6 169)">Data</text><rect x="119" y="195" width="166" height="42" fill="#8497B0"/><text fill="#FFFFFF" font-family="Verdana,Verdana_MSFontService,sans-serif" font-weight="400" font-size="19" transform="translate(162.44 223)">Runtime</text><rect x="119" y="304" width="166" height="42" fill="#8497B0"/><text fill="#FFFFFF" font-family="Verdana,Verdana_MSFontService,sans-serif" font-weight="400" font-size="19" transform="translate(139.933 332)">Virtualization</text><rect x="119" y="358" width="166" height="42" fill="#8497B0"/><text fill="#FFFFFF" font-family="Verdana,Verdana_MSFontService,sans-serif" font-weight="400" font-size="19" transform="translate(165.767 387)">Servers</text><rect x="119" y="413" width="166" height="42" fill="#8497B0"/><text fill="#FFFFFF" font-family="Verdana,Verdana_MSFontService,sans-serif" font-weight="400" font-size="19" transform="translate(165.013 442)">Storage</text><rect x="119" y="467" width="166" height="42" fill="#8497B0"/><text fill="#FFFFFF" font-family="Verdana,Verdana_MSFontService,sans-serif" font-weight="400" font-size="19" transform="translate(148.183 496)">Networking</text><rect x="339" y="86" width="166" height="41" fill="#8497B0"/><text fill="#FFFFFF" font-family="Verdana,Verdana_MSFontService,sans-serif" font-weight="400" font-size="19" transform="translate(365.485 114)">Applications</text><rect x="339" y="140" width="166" height="42" fill="#8497B0"/><text fill="#FFFFFF" font-family="Verdana,Verdana_MSFontService,sans-serif" font-weight="400" font-size="19" transform="translate(399.818 169)">Data</text><rect x="339" y="195" width="166" height="42" fill="#8497B0"/><text fill="#FFFFFF" font-family="Verdana,Verdana_MSFontService,sans-serif" font-weight="400" font-size="19" transform="translate(382.658 223)">Runtime</text><rect x="339" y="304" width="166" height="42" fill="#AFABAB"/><text fill="#FFFFFF" font-family="Verdana,Verdana_MSFontService,sans-serif" font-weight="400" font-size="19" transform="translate(360.151 332)">Virtualization</text><rect x="339" y="358" width="166" height="42" fill="#AFABAB"/><text fill="#FFFFFF" font-family="Verdana,Verdana_MSFontService,sans-serif" font-weight="400" font-size="19" transform="translate(385.985 387)">Servers</text><rect x="339" y="413" width="166" height="42" fill="#AFABAB"/><text fill="#FFFFFF" font-family="Verdana,Verdana_MSFontService,sans-serif" font-weight="400" font-size="19" transform="translate(385.231 442)">Storage</text><rect x="339" y="467" width="166" height="42" fill="#AFABAB"/><text fill="#FFFFFF" font-family="Verdana,Verdana_MSFontService,sans-serif" font-weight="400" font-size="19" transform="translate(368.401 496)">Networking</text><rect x="559" y="86" width="166" height="41" fill="#8497B0"/><text fill="#FFFFFF" font-family="Verdana,Verdana_MSFontService,sans-serif" font-weight="400" font-size="19" transform="translate(585.703 114)">Applications</text><rect x="559" y="140" width="166" height="42" fill="#8497B0"/><text fill="#FFFFFF" font-family="Verdana,Verdana_MSFontService,sans-serif" font-weight="400" font-size="19" transform="translate(620.036 169)">Data</text><rect x="559" y="195" width="166" height="42" fill="#AFABAB"/><text fill="#FFFFFF" font-family="Verdana,Verdana_MSFontService,sans-serif" font-weight="400" font-size="19" transform="translate(602.876 223)">Runtime</text><rect x="559" y="304" width="166" height="42" fill="#AFABAB"/><text fill="#FFFFFF" font-family="Verdana,Verdana_MSFontService,sans-serif" font-weight="400" font-size="19" transform="translate(580.37 332)">Virtualization</text><rect x="559" y="358" width="166" height="42" fill="#AFABAB"/><text fill="#FFFFFF" font-family="Verdana,Verdana_MSFontService,sans-serif" font-weight="400" font-size="19" transform="translate(606.203 387)">Servers</text><rect x="559" y="413" width="166" height="42" fill="#AFABAB"/><text fill="#FFFFFF" font-family="Verdana,Verdana_MSFontService,sans-serif" font-weight="400" font-size="19" transform="translate(605.45 442)">Storage</text><rect x="559" y="467" width="166" height="42" fill="#AFABAB"/><text fill="#FFFFFF" font-family="Verdana,Verdana_MSFontService,sans-serif" font-weight="400" font-size="19" transform="translate(588.62 496)">Networking</text><rect x="784" y="86" width="166" height="41" fill="#8497B0"/><text fill="#FFFFFF" font-family="Verdana,Verdana_MSFontService,sans-serif" font-weight="400" font-size="19" transform="translate(810.867 114)">Applications</text><rect x="784" y="140" width="166" height="42" fill="#AFABAB"/><text fill="#FFFFFF" font-family="Verdana,Verdana_MSFontService,sans-serif" font-weight="400" font-size="19" transform="translate(845.2 169)">Data</text><rect x="784" y="195" width="166" height="42" fill="#AFABAB"/><text fill="#FFFFFF" font-family="Verdana,Verdana_MSFontService,sans-serif" font-weight="400" font-size="19" transform="translate(828.04 223)">Runtime</text><rect x="784" y="304" width="166" height="42" fill="#AFABAB"/><text fill="#FFFFFF" font-family="Verdana,Verdana_MSFontService,sans-serif" font-weight="400" font-size="19" transform="translate(805.533 332)">Virtualization</text><rect x="784" y="358" width="166" height="42" fill="#AFABAB"/><text fill="#FFFFFF" font-family="Verdana,Verdana_MSFontService,sans-serif" font-weight="400" font-size="19" transform="translate(831.367 387)">Servers</text><rect x="784" y="413" width="166" height="42" fill="#AFABAB"/><text fill="#FFFFFF" font-family="Verdana,Verdana_MSFontService,sans-serif" font-weight="400" font-size="19" transform="translate(830.613 442)">Storage</text><rect x="784" y="467" width="166" height="42" fill="#AFABAB"/><text fill="#FFFFFF" font-family="Verdana,Verdana_MSFontService,sans-serif" font-weight="400" font-size="19" transform="translate(813.783 496)">Networking</text><rect x="118" y="249" width="166" height="42" fill="#8497B0"/><text fill="#FFFFFF" font-family="Verdana,Verdana_MSFontService,sans-serif" font-weight="400" font-size="19" transform="translate(187.268 278)">OS</text><rect x="338" y="249" width="166" height="42" fill="#8497B0"/><text fill="#FFFFFF" font-family="Verdana,Verdana_MSFontService,sans-serif" font-weight="400" font-size="19" transform="translate(407.486 278)">OS</text><rect x="559" y="249" width="165" height="42" fill="#AFABAB"/><text fill="#FFFFFF" font-family="Verdana,Verdana_MSFontService,sans-serif" font-weight="400" font-size="19" transform="translate(627.704 278)">OS</text><rect x="784" y="249" width="166" height="42" fill="#AFABAB"/><text fill="#FFFFFF" font-family="Verdana,Verdana_MSFontService,sans-serif" font-weight="400" font-size="19" transform="translate(852.868 278)">OS</text><rect x="995" y="86" width="166" height="41" fill="#AFABAB"/><text fill="#FFFFFF" font-family="Verdana,Verdana_MSFontService,sans-serif" font-weight="400" font-size="19" transform="translate(1022.07 114)">Applications</text><rect x="995" y="140" width="166" height="42" fill="#AFABAB"/><text fill="#FFFFFF" font-family="Verdana,Verdana_MSFontService,sans-serif" font-weight="400" font-size="19" transform="translate(1056.4 169)">Data</text><rect x="995" y="195" width="166" height="42" fill="#AFABAB"/><text fill="#FFFFFF" font-family="Verdana,Verdana_MSFontService,sans-serif" font-weight="400" font-size="19" transform="translate(1039.24 223)">Runtime</text><rect x="995" y="304" width="166" height="42" fill="#AFABAB"/><text fill="#FFFFFF" font-family="Verdana,Verdana_MSFontService,sans-serif" font-weight="400" font-size="19" transform="translate(1016.73 332)">Virtualization</text><rect x="995" y="358" width="166" height="42" fill="#AFABAB"/><text fill="#FFFFFF" font-family="Verdana,Verdana_MSFontService,sans-serif" font-weight="400" font-size="19" transform="translate(1042.57 387)">Servers</text><rect x="995" y="413" width="166" height="42" fill="#AFABAB"/><text fill="#FFFFFF" font-family="Verdana,Verdana_MSFontService,sans-serif" font-weight="400" font-size="19" transform="translate(1041.81 442)">Storage</text><rect x="995" y="467" width="166" height="42" fill="#AFABAB"/><text fill="#FFFFFF" font-family="Verdana,Verdana_MSFontService,sans-serif" font-weight="400" font-size="19" transform="translate(1024.98 496)">Networking</text><rect x="995" y="249" width="166" height="42" fill="#AFABAB"/><text fill="#FFFFFF" font-family="Verdana,Verdana_MSFontService,sans-serif" font-weight="400" font-size="19" transform="translate(1064.07 278)">OS</text><path d="M0 0 23.5637 0.000104987" stroke="#0D0D0D" stroke-width="0.666667" stroke-miterlimit="8" fill="none" fill-rule="evenodd" transform="matrix(-1 0 0 1 111.064 110.5)"/><path d="M0 0 23.5637 0.000104987" stroke="#0D0D0D" stroke-width="0.666667" stroke-miterlimit="8" fill="none" fill-rule="evenodd" transform="matrix(-1 0 0 1 110.064 498.5)"/><path d="M0 0 1.01764 387.782" stroke="#0D0D0D" stroke-width="0.666667" stroke-miterlimit="8" fill="none" fill-rule="evenodd" transform="matrix(1 0 0 -1 86.5001 498.282)"/><text font-family="Verdana,Verdana_MSFontService,sans-serif" font-weight="400" font-size="16" transform="matrix(-1.83697e-16 -1 1 -1.83697e-16 84.5087 356)">You<tspan font-size="16" x="34" y="6.2457e-15">manage</tspan></text><path d="M0 0 23.5637 0.000104987" stroke="#0D0D0D" stroke-width="0.666667" stroke-miterlimit="8" fill="none" fill-rule="evenodd" transform="matrix(-1 0 0 1 337.064 110.5)"/><path d="M0 0 23.5637 0.000104987" stroke="#0D0D0D" stroke-width="0.666667" stroke-miterlimit="8" fill="none" fill-rule="evenodd" transform="matrix(-1 0 0 1 336.064 272.5)"/><path d="M0 0 0.426772 162.619" stroke="#0D0D0D" stroke-width="0.666667" stroke-miterlimit="8" fill="none" fill-rule="evenodd" transform="matrix(1 0 0 -1 313.5 273.119)"/><text font-family="Verdana,Verdana_MSFontService,sans-serif" font-weight="400" font-size="16" transform="matrix(-1.83697e-16 -1 1 -1.83697e-16 310.904 244)">You<tspan font-size="16" x="35" y="6.4294e-15">manage</tspan></text><path d="M0 0 23.5637 0.000104987" stroke="#0D0D0D" stroke-width="0.666667" stroke-miterlimit="8" fill="none" fill-rule="evenodd" transform="matrix(-1 0 0 1 556.064 101.5)"/><path d="M0 0 23.5637 0.000104987" stroke="#0D0D0D" stroke-width="0.666667" stroke-miterlimit="8" fill="none" fill-rule="evenodd" transform="matrix(-1 0 0 1 555.064 163.5)"/><path d="M0 0 0.000104987 62.2552" stroke="#0D0D0D" stroke-width="0.666667" stroke-miterlimit="8" fill="none" fill-rule="evenodd" transform="matrix(1 0 0 -1 532.5 163.755)"/><text font-family="Verdana,Verdana_MSFontService,sans-serif" font-weight="400" font-size="16" transform="matrix(-1.83697e-16 -1 1 -1.83697e-16 529.377 185)">You<tspan font-size="16" x="34" y="6.2457e-15">manage</tspan></text><path d="M0 0 23.5637 0.000104987" stroke="#0D0D0D" stroke-width="0.666667" stroke-miterlimit="8" fill="none" fill-rule="evenodd" transform="matrix(-1 0 0 1 780.064 105.5)"/><text font-family="Verdana,Verdana_MSFontService,sans-serif" font-weight="400" font-size="16" transform="matrix(-1.83697e-16 -1 1 -1.83697e-16 752.674 185)">You<tspan font-size="16" x="34" y="6.2457e-15">manage</tspan></text><text font-family="Verdana,Verdana_MSFontService,sans-serif" font-weight="400" font-size="16" transform="translate(149.286 79)">On premises<tspan font-size="16" x="255.856" y="0">IaaS</tspan><tspan font-size="16" x="468.157" y="0">P</tspan><tspan font-size="16" x="477.431" y="0">aaS</tspan><tspan font-size="16" x="695.291" y="0">FaaS</tspan><tspan font-size="16" x="908.126" y="0">SaaS</tspan></text></g></svg>