<svg width="723" height="406" xmlns="http://www.w3.org/2000/svg" xmlns:xlink="http://www.w3.org/1999/xlink" overflow="hidden"><defs><clipPath id="clip0"><rect x="209" y="158" width="723" height="406"/></clipPath><clipPath id="clip1"><rect x="426" y="200" width="58" height="57"/></clipPath><clipPath id="clip2"><rect x="426" y="200" width="58" height="57"/></clipPath><clipPath id="clip3"><rect x="426" y="200" width="58" height="57"/></clipPath><clipPath id="clip4"><rect x="426" y="278" width="57" height="58"/></clipPath><clipPath id="clip5"><rect x="426" y="278" width="57" height="58"/></clipPath><clipPath id="clip6"><rect x="426" y="278" width="57" height="58"/></clipPath><clipPath id="clip7"><rect x="425" y="470" width="59" height="59"/></clipPath><clipPath id="clip8"><rect x="425" y="470" width="59" height="59"/></clipPath><clipPath id="clip9"><rect x="425" y="470" width="59" height="59"/></clipPath><clipPath id="clip10"><rect x="648" y="199" width="57" height="57"/></clipPath><clipPath id="clip11"><rect x="648" y="199" width="57" height="57"/></clipPath><clipPath id="clip12"><rect x="648" y="199" width="57" height="57"/></clipPath><clipPath id="clip13"><rect x="805" y="199" width="57" height="58"/></clipPath><clipPath id="clip14"><rect x="805" y="199" width="57" height="58"/></clipPath><clipPath id="clip15"><rect x="805" y="199" width="57" height="58"/></clipPath></defs><g clip-path="url(#clip0)" transform="translate(-209 -158)"><rect x="212.5" y="469.5" width="279" height="94" stroke="#000000" stroke-width="0.333333" stroke-miterlimit="8" fill="none"/><text font-family="Arial,Arial_MSFontService,sans-serif" font-weight="400" font-size="19" transform="translate(221.441 504)">Ingestion (acquiring)<tspan font-size="16" x="0" y="20">•</tspan><tspan font-size="16" x="30" y="20">Batch</tspan><tspan font-size="16" x="0" y="39">•</tspan><tspan font-size="16" x="30" y="39">Streaming</tspan></text><rect x="212.5" y="278.5" width="279" height="191" stroke="#000000" stroke-width="0.333333" stroke-miterlimit="8" fill="none"/><text font-family="Arial,Arial_MSFontService,sans-serif" font-weight="400" font-size="19" transform="translate(221.23 342)">Analytics (analyzing)<tspan font-size="16" x="0" y="20">•</tspan><tspan font-size="16" x="30" y="20">Processing</tspan><tspan font-size="16" x="48" y="39">•</tspan><tspan font-size="16" x="78" y="39">Batch</tspan><tspan font-size="16" x="48" y="58">•</tspan><tspan font-size="16" x="78" y="58">Streaming</tspan><tspan font-size="16" x="0" y="78">•</tspan><tspan font-size="16" x="30" y="78">Machine learning</tspan></text><rect x="212.5" y="198.5" width="279" height="80" stroke="#000000" stroke-width="0.333333" stroke-miterlimit="8" fill="none"/><text font-family="Arial,Arial_MSFontService,sans-serif" font-weight="400" font-size="19" transform="translate(221.23 226)">Serve (deciding)<tspan font-size="16" x="0" y="20">•</tspan><tspan font-size="16" x="30" y="20">SQL</tspan><tspan font-size="16" x="0" y="39">•</tspan><tspan font-size="16" x="30" y="39">BI tools (e.g., Tableau)</tspan></text><g clip-path="url(#clip1)"><g clip-path="url(#clip2)"><g clip-path="url(#clip3)"><path d="M46.6094 10.3906 46.0156 5.04688 39.4844 11.5781 39.8406 14.6656 30.3406 24.1656C29.5094 23.75 28.5594 23.4531 27.55 23.4531 24.2844 23.4531 21.6125 26.125 21.6125 29.3906 21.6125 32.6563 24.2844 35.3281 27.55 35.3281 30.8156 35.3281 33.4875 32.6563 33.4875 29.3906 33.4875 28.3813 33.25 27.4906 32.8344 26.6594L42.3344 17.1594 45.4219 17.5156 51.9531 10.9844 46.6094 10.3906Z" fill="#333F50" transform="matrix(1.01754 0 0 1 426 200)"/><path d="M47.0844 19.1781 46.3125 20.0094 45.1844 19.8906 43.9375 19.7125C45.6 22.5625 46.6094 25.8281 46.6094 29.3906 46.6094 39.8406 38.0594 48.3906 27.6094 48.3906 17.1594 48.3906 8.60938 39.8406 8.60938 29.3906 8.60938 18.9406 17.1594 10.3906 27.6094 10.3906 31.1125 10.3906 34.4375 11.3406 37.2875 13.0625L37.1688 11.875 36.9906 10.6875 37.8219 9.85625 38.2375 9.44063C35.0313 7.77813 31.4688 6.82813 27.6094 6.82813 15.1406 6.82813 5.04688 16.9219 5.04688 29.3906 5.04688 41.8594 15.1406 51.9531 27.6094 51.9531 40.0781 51.9531 50.1719 41.8594 50.1719 29.3906 50.1719 25.5313 49.2219 21.9688 47.5 18.8219L47.0844 19.1781Z" fill="#333F50" transform="matrix(1.01754 0 0 1 426 200)"/><path d="M37.525 25.3531C38.0594 26.6 38.2969 27.9656 38.2969 29.3906 38.2969 35.2687 33.4875 40.0781 27.6094 40.0781 21.7312 40.0781 16.9219 35.2687 16.9219 29.3906 16.9219 23.5125 21.7312 18.7031 27.6094 18.7031 29.0344 18.7031 30.4 19 31.6469 19.475L34.3187 16.8031C32.3 15.7344 30.0437 15.1406 27.6094 15.1406 19.7719 15.1406 13.3594 21.5531 13.3594 29.3906 13.3594 37.2281 19.7719 43.6406 27.6094 43.6406 35.4469 43.6406 41.8594 37.2281 41.8594 29.3906 41.8594 26.9563 41.2656 24.7 40.1969 22.6812L37.525 25.3531Z" fill="#333F50" transform="matrix(1.01754 0 0 1 426 200)"/></g></g></g><g clip-path="url(#clip4)"><g clip-path="url(#clip5)"><g clip-path="url(#clip6)"><path d="M43.0469 37.4656C42.0969 36.5156 40.6719 36.0406 39.3656 36.3375L36.6937 33.725C39.0688 30.6375 40.375 26.8375 40.375 22.9187 40.4344 13.0031 32.4188 4.9875 22.5625 4.92812 12.7063 4.86875 4.69063 12.8844 4.63125 22.7406 4.57188 32.5969 12.5875 40.6125 22.4438 40.6719 26.3625 40.6719 30.2219 39.3656 33.3688 36.9906L35.9813 39.6031C35.7438 40.9688 36.1594 42.3344 37.1094 43.3438L44.5313 50.7656C46.1344 52.3687 48.8062 52.3687 50.4094 50.7656 52.0125 49.1625 52.0125 46.4906 50.4094 44.8875L43.0469 37.4656ZM22.5625 37.1094C14.6656 37.1094 8.3125 30.7563 8.3125 22.8594 8.3125 14.9625 14.6656 8.60938 22.5625 8.60938 30.4594 8.60938 36.8125 14.9625 36.8125 22.8594 36.8125 30.6969 30.4 37.1094 22.5625 37.1094Z" fill="#333F50" transform="matrix(1 0 0 1.01754 426 278)"/><path d="M35.3281 21.9688 31.9438 21.9688C31.6469 22.0281 31.35 22.2063 31.1719 22.4438L28.9156 24.8781 27.0156 18.2875C26.8375 17.7531 26.2437 17.3969 25.7094 17.575 25.4125 17.6938 25.1156 17.8719 24.9969 18.2281L21.4344 27.6687 19 14.6062C18.8813 14.0125 18.3469 13.6563 17.8125 13.775 17.4562 13.8344 17.1594 14.1312 16.9813 14.4875L14.4281 21.9688 9.79688 21.9688 9.79688 24.3438 15.2 24.3438C15.675 24.2844 16.0906 23.9281 16.2094 23.4531L17.6938 18.9406 20.0688 31.7063C20.1281 32.1813 20.5437 32.5375 21.0188 32.5375L21.1375 32.5375C21.5531 32.5375 21.9688 32.3 22.1469 31.8844L25.9469 21.9094 27.4906 27.2531C27.6687 27.7875 28.2031 28.1438 28.7969 27.9656 28.975 27.9063 29.1531 27.7875 29.2719 27.6687L32.4781 24.3438 35.3875 24.3438 35.3875 21.9688Z" fill="#333F50" transform="matrix(1 0 0 1.01754 426 278)"/></g></g></g><g clip-path="url(#clip7)"><g clip-path="url(#clip8)"><g clip-path="url(#clip9)"><path d="M468.021 510.563C465.78 510.564 463.824 512.081 463.264 514.25L455.729 514.25 455.729 504.257C458.356 503.57 459.929 500.884 459.243 498.257 458.793 496.536 457.45 495.193 455.729 494.743L455.729 482.292 445.736 482.292C445.057 479.662 442.375 478.081 439.746 478.76 437.117 479.439 435.536 482.121 436.215 484.75 436.894 487.379 439.576 488.96 442.205 488.281 443.936 487.834 445.289 486.482 445.736 484.75L453.271 484.75 453.271 494.743C450.644 495.43 449.071 498.116 449.757 500.743 450.207 502.464 451.55 503.807 453.271 504.257L453.271 516.708 463.264 516.708C463.943 519.338 466.625 520.919 469.254 520.24 471.883 519.561 473.464 516.879 472.785 514.25 472.224 512.078 470.264 510.561 468.021 510.563Z" fill="#333F50"/></g></g></g><text font-family="Arial,Arial_MSFontService,sans-serif" font-weight="400" font-size="24" transform="translate(246.158 190)">Data <tspan font-size="24" x="57.3333" y="0">transformation</tspan></text><rect x="573.5" y="198.5" width="131" height="364" stroke="#000000" stroke-width="0.333333" stroke-miterlimit="8" fill="none"/><text font-family="Arial,Arial_MSFontService,sans-serif" font-weight="400" font-size="19" transform="translate(583.032 336)">Storage <tspan font-size="19" x="0" y="23">(organizing)</tspan><tspan font-size="16" x="0" y="42">•</tspan><tspan font-size="16" x="30" y="42">File</tspan><tspan font-size="16" x="0" y="62">•</tspan><tspan font-size="16" x="30" y="62">Object</tspan><tspan font-size="16" x="0" y="81">•</tspan><tspan font-size="16" x="30" y="81">DB</tspan></text><g clip-path="url(#clip10)"><g clip-path="url(#clip11)"><g clip-path="url(#clip12)"><path d="M693.125 209.688C693.125 212.311 685.682 214.438 676.5 214.438 667.318 214.438 659.875 212.311 659.875 209.688 659.875 207.064 667.318 204.938 676.5 204.938 685.682 204.938 693.125 207.064 693.125 209.688Z" fill="#333F50"/><path d="M688.375 221.563C687.662 221.563 687.188 221.087 687.188 220.375 687.188 219.663 687.662 219.188 688.375 219.188 689.088 219.188 689.563 219.663 689.563 220.375 689.563 221.087 689.088 221.563 688.375 221.563ZM676.5 216.813C667.356 216.813 659.875 214.675 659.875 212.063L659.875 221.563C659.875 224.175 667.356 226.313 676.5 226.313 685.644 226.313 693.125 224.175 693.125 221.563L693.125 212.063C693.125 214.675 685.644 216.813 676.5 216.813Z" fill="#333F50"/><path d="M688.375 233.438C687.662 233.438 687.188 232.962 687.188 232.25 687.188 231.538 687.662 231.063 688.375 231.063 689.088 231.063 689.563 231.538 689.563 232.25 689.563 232.962 689.088 233.438 688.375 233.438ZM676.5 228.688C667.356 228.688 659.875 226.55 659.875 223.938L659.875 233.438C659.875 236.05 667.356 238.188 676.5 238.188 685.644 238.188 693.125 236.05 693.125 233.438L693.125 223.938C693.125 226.55 685.644 228.688 676.5 228.688Z" fill="#333F50"/><path d="M688.375 245.313C687.662 245.313 687.188 244.837 687.188 244.125 687.188 243.413 687.662 242.938 688.375 242.938 689.088 242.938 689.563 243.413 689.563 244.125 689.563 244.837 689.088 245.313 688.375 245.313ZM676.5 240.563C667.356 240.563 659.875 238.425 659.875 235.813L659.875 245.313C659.875 247.925 667.356 250.063 676.5 250.063 685.644 250.063 693.125 247.925 693.125 245.313L693.125 235.813C693.125 238.425 685.644 240.563 676.5 240.563Z" fill="#333F50"/></g></g></g><rect x="704.5" y="198.5" width="158" height="364" stroke="#000000" stroke-width="0.333333" stroke-miterlimit="8" fill="none"/><text font-family="Arial,Arial_MSFontService,sans-serif" font-weight="400" font-size="19" transform="translate(713.62 356)">Security<tspan font-size="16" x="0" y="20">•</tspan><tspan font-size="16" x="30" y="20">Access Control</tspan><tspan font-size="16" x="0" y="39">•</tspan><tspan font-size="16" x="30" y="39">Authorization</tspan></text><g clip-path="url(#clip13)"><g clip-path="url(#clip14)"><g clip-path="url(#clip15)"><path d="M45.6 35.3875C43.9519 34.0766 42.1244 33.0088 40.1731 32.2169L37.6556 35.3578 38.3622 35.8269 39.2588 36.4206 38.7481 37.4063 32.6563 48.6875 47.5 48.6875 47.5 39.1875C47.469 37.6999 46.7715 36.3049 45.6 35.3875Z" fill="#333F50" transform="matrix(1 0 0 1.01754 805 199)"/><path d="M18.2519 37.4063 17.7412 36.4503 18.6378 35.8566 19.3444 35.3875 16.8684 32.2941C14.9431 33.1326 13.1105 34.1693 11.4 35.3875 10.2285 36.3049 9.53099 37.6999 9.5 39.1875L9.5 48.6875 24.3438 48.6875Z" fill="#333F50" transform="matrix(1 0 0 1.01754 805 199)"/><path d="M39.9356 14.0719 37.4063 14.0719 34.7878 6.22844C34.6017 4.83402 33.3205 3.85447 31.9261 4.04053 31.3504 4.11736 30.8182 4.38863 30.4178 4.80938L30.4178 4.80938C29.3736 5.92051 27.6263 5.97473 26.5152 4.93048 26.4916 4.90833 26.4684 4.88577 26.4456 4.86281L26.2675 4.68469C25.2562 3.70679 23.6437 3.73387 22.6658 4.74518 22.281 5.14304 22.0364 5.65538 21.9688 6.20469L19 14.0719 16.4706 14.0719C15.7062 14.0569 15.0375 14.5839 14.8734 15.3306 14.6996 16.1821 15.249 17.0131 16.1004 17.187 16.2046 17.2082 16.3108 17.2189 16.4172 17.2188L39.9891 17.2188C40.8579 17.2363 41.5765 16.5463 41.594 15.6775 41.5964 15.5611 41.5858 15.4447 41.5625 15.3306 41.3964 14.5726 40.7111 14.0424 39.9356 14.0719Z" fill="#333F50" transform="matrix(1 0 0 1.01754 805 199)"/><path d="M29.9547 33.1016 30.875 29.5391 26.125 29.5391 27.0453 33.1016 29.9547 33.1016Z" fill="#333F50" transform="matrix(1 0 0 1.01754 805 199)"/><path d="M40.6719 29.6875 33.9447 25.5847C36.1376 24.0478 37.58 21.6566 37.9169 19L19.0831 19C19.4184 21.6588 20.8609 24.0523 23.0553 25.5906L16.3281 29.6875 21.0781 35.625 19.2969 36.8125 25.6856 48.6875 27.0156 48.6875 27.0156 48.6875 29.9844 48.6875 29.9844 48.6875 31.3144 48.6875 37.7031 36.8125 35.9219 35.625ZM30.4 45.8672 29.8775 34.2891 27.1225 34.2891 26.6 45.8672 23.6313 25.9766C26.6214 27.7524 30.3429 27.7524 33.3331 25.9766Z" fill="#333F50" transform="matrix(1 0 0 1.01754 805 199)"/></g></g></g><rect x="862.5" y="198.5" width="31" height="364" stroke="#000000" stroke-width="0.333333" stroke-miterlimit="8" fill="none"/><text font-family="Arial,Arial_MSFontService,sans-serif" font-weight="400" font-size="24" transform="translate(657.213 189)">Supporting services</text><text font-family="Arial,Arial_MSFontService,sans-serif" font-weight="400" font-size="19" transform="matrix(-1.83697e-16 -1 1 -1.83697e-16 883.265 421)">Computing</text><rect x="893.5" y="198.5" width="31" height="364" stroke="#000000" stroke-width="0.333333" stroke-miterlimit="8" fill="none"/><text font-family="Arial,Arial_MSFontService,sans-serif" font-weight="400" font-size="19" transform="matrix(-1.83697e-16 -1 1 -1.83697e-16 916.26 421)">Networking</text></g></svg>