<svg width="759" height="335" xmlns="http://www.w3.org/2000/svg" xmlns:xlink="http://www.w3.org/1999/xlink" overflow="hidden"><defs><clipPath id="clip0"><rect x="84" y="230" width="759" height="335"/></clipPath></defs><g clip-path="url(#clip0)" transform="translate(-84 -230)"><path d="M85.4376 564.491 302.438 231.491 519.438 564.491Z" stroke="#000000" stroke-width="0.666667" stroke-miterlimit="8" fill="none" fill-rule="evenodd"/><path d="M250.438 311.491 354.438 311.491" stroke="#000000" stroke-width="0.666667" stroke-miterlimit="8" fill="none" fill-rule="evenodd"/><path d="M209.438 375.491 396.438 375.491" stroke="#000000" stroke-width="0.666667" stroke-miterlimit="8" fill="none" fill-rule="evenodd"/><path d="M167.438 438.491 437.438 438.491" stroke="#000000" stroke-width="0.666667" stroke-miterlimit="8" fill="none" fill-rule="evenodd"/><path d="M126.438 501.491 478.438 501.491" stroke="#000000" stroke-width="0.666667" stroke-miterlimit="8" fill="none" fill-rule="evenodd"/><text font-family="Arial,Arial_MSFontService,sans-serif" font-weight="400" font-size="19" transform="translate(278.612 542)">World<tspan font-size="19" x="4.54059" y="-65">Data</tspan><tspan font-size="19" x="-22.5549" y="-127">Information</tspan><tspan font-size="19" x="-22.1341" y="-194">Knowledge</tspan><tspan font-size="19" x="255.281" y="-190">Data Mining, Machine Learning</tspan><tspan font-size="19" x="-9.59613" y="-251">Wisdom</tspan></text><path d="M0.333333-1.25918e-07 0.333436 271.257-0.333231 271.257-0.333333 1.25918e-07ZM4.0001 269.923 0.000104987 277.923-3.9999 269.923Z" transform="matrix(1 0 0 -1 525.5 536.423)"/><text font-family="Arial,Arial_MSFontService,sans-serif" font-weight="400" font-size="19" transform="matrix(-1.83697e-16 -1 1 -1.83697e-16 515.75 454)">Data pipeline</text><text font-family="Arial,Arial_MSFontService,sans-serif" font-weight="400" font-size="19" transform="translate(533.893 412)">Data <tspan font-size="19" x="44.5" y="0">Warehouse, </tspan><tspan font-size="19" x="149.307" y="0">OLAP</tspan><tspan font-size="19" x="0" y="59">Operational </tspan><tspan font-size="19" x="101.333" y="59">data storage, </tspan><tspan font-size="19" x="215" y="59">OLTP</tspan><tspan font-size="19" x="0" y="-119">Decisions</tspan><tspan font-size="19" x="0" y="119">Ingestion</tspan></text></g></svg>