<svg width="830" height="197" xmlns="http://www.w3.org/2000/svg" xmlns:xlink="http://www.w3.org/1999/xlink" overflow="hidden"><defs><clipPath id="clip0"><rect x="143" y="460" width="830" height="197"/></clipPath><clipPath id="clip1"><rect x="144" y="474" width="53" height="53"/></clipPath><clipPath id="clip2"><rect x="144" y="474" width="53" height="53"/></clipPath><clipPath id="clip3"><rect x="144" y="474" width="53" height="53"/></clipPath><clipPath id="clip4"><rect x="185" y="474" width="53" height="53"/></clipPath><clipPath id="clip5"><rect x="185" y="474" width="53" height="53"/></clipPath><clipPath id="clip6"><rect x="185" y="474" width="53" height="53"/></clipPath><clipPath id="clip7"><rect x="226" y="474" width="53" height="53"/></clipPath><clipPath id="clip8"><rect x="226" y="474" width="53" height="53"/></clipPath><clipPath id="clip9"><rect x="226" y="474" width="53" height="53"/></clipPath><clipPath id="clip10"><rect x="267" y="474" width="53" height="53"/></clipPath><clipPath id="clip11"><rect x="267" y="474" width="53" height="53"/></clipPath><clipPath id="clip12"><rect x="267" y="474" width="53" height="53"/></clipPath><clipPath id="clip13"><rect x="308" y="474" width="53" height="53"/></clipPath><clipPath id="clip14"><rect x="308" y="474" width="53" height="53"/></clipPath><clipPath id="clip15"><rect x="308" y="474" width="53" height="53"/></clipPath><clipPath id="clip16"><rect x="390" y="474" width="53" height="53"/></clipPath><clipPath id="clip17"><rect x="390" y="474" width="53" height="53"/></clipPath><clipPath id="clip18"><rect x="390" y="474" width="53" height="53"/></clipPath><clipPath id="clip19"><rect x="349" y="474" width="53" height="53"/></clipPath><clipPath id="clip20"><rect x="349" y="474" width="53" height="53"/></clipPath><clipPath id="clip21"><rect x="349" y="474" width="53" height="53"/></clipPath><clipPath id="clip22"><rect x="431" y="474" width="53" height="53"/></clipPath><clipPath id="clip23"><rect x="431" y="474" width="53" height="53"/></clipPath><clipPath id="clip24"><rect x="431" y="474" width="53" height="53"/></clipPath><clipPath id="clip25"><rect x="472" y="474" width="53" height="53"/></clipPath><clipPath id="clip26"><rect x="472" y="474" width="53" height="53"/></clipPath><clipPath id="clip27"><rect x="472" y="474" width="53" height="53"/></clipPath><clipPath id="clip28"><rect x="144" y="532" width="53" height="53"/></clipPath><clipPath id="clip29"><rect x="144" y="532" width="53" height="53"/></clipPath><clipPath id="clip30"><rect x="144" y="532" width="53" height="53"/></clipPath><clipPath id="clip31"><rect x="185" y="532" width="53" height="53"/></clipPath><clipPath id="clip32"><rect x="185" y="532" width="53" height="53"/></clipPath><clipPath id="clip33"><rect x="185" y="532" width="53" height="53"/></clipPath><clipPath id="clip34"><rect x="226" y="532" width="53" height="53"/></clipPath><clipPath id="clip35"><rect x="226" y="532" width="53" height="53"/></clipPath><clipPath id="clip36"><rect x="226" y="532" width="53" height="53"/></clipPath><clipPath id="clip37"><rect x="267" y="532" width="53" height="53"/></clipPath><clipPath id="clip38"><rect x="267" y="532" width="53" height="53"/></clipPath><clipPath id="clip39"><rect x="267" y="532" width="53" height="53"/></clipPath><clipPath id="clip40"><rect x="308" y="532" width="53" height="53"/></clipPath><clipPath id="clip41"><rect x="308" y="532" width="53" height="53"/></clipPath><clipPath id="clip42"><rect x="308" y="532" width="53" height="53"/></clipPath><clipPath id="clip43"><rect x="390" y="532" width="53" height="53"/></clipPath><clipPath id="clip44"><rect x="390" y="532" width="53" height="53"/></clipPath><clipPath id="clip45"><rect x="390" y="532" width="53" height="53"/></clipPath><clipPath id="clip46"><rect x="349" y="532" width="53" height="53"/></clipPath><clipPath id="clip47"><rect x="349" y="532" width="53" height="53"/></clipPath><clipPath id="clip48"><rect x="349" y="532" width="53" height="53"/></clipPath><clipPath id="clip49"><rect x="431" y="532" width="53" height="53"/></clipPath><clipPath id="clip50"><rect x="431" y="532" width="53" height="53"/></clipPath><clipPath id="clip51"><rect x="431" y="532" width="53" height="53"/></clipPath><clipPath id="clip52"><rect x="472" y="532" width="53" height="53"/></clipPath><clipPath id="clip53"><rect x="472" y="532" width="53" height="53"/></clipPath><clipPath id="clip54"><rect x="472" y="532" width="53" height="53"/></clipPath><clipPath id="clip55"><rect x="293" y="589" width="52" height="53"/></clipPath><clipPath id="clip56"><rect x="293" y="589" width="52" height="53"/></clipPath><clipPath id="clip57"><rect x="293" y="589" width="52" height="53"/></clipPath><clipPath id="clip58"><rect x="320" y="603" width="53" height="53"/></clipPath><clipPath id="clip59"><rect x="320" y="603" width="53" height="53"/></clipPath><clipPath id="clip60"><rect x="320" y="603" width="53" height="53"/></clipPath></defs><g clip-path="url(#clip0)" transform="translate(-143 -460)"><path d="M0 0 0.127244 46.4678" stroke="#3B3838" stroke-width="0.666667" stroke-miterlimit="8" stroke-dasharray="2.66667 2" fill="none" fill-rule="evenodd" transform="matrix(-1 0 0 1 170.627 585.5)"/><g clip-path="url(#clip1)"><g clip-path="url(#clip2)"><g clip-path="url(#clip3)"><path d="M184.28 474 156.72 474C155.554 474 154.6 474.954 154.6 476.12L154.6 524.88C154.6 526.046 155.554 527.001 156.72 527.001L184.28 527.001C185.446 527.001 186.4 526.047 186.4 524.88L186.4 476.12C186.4 474.954 185.446 474 184.28 474ZM170.5 512.984C168.745 512.984 167.32 511.557 167.32 509.805 167.32 508.049 168.745 506.625 170.5 506.625 172.255 506.625 173.68 508.049 173.68 509.805 173.68 511.558 172.255 512.984 170.5 512.984ZM182.16 497.519 158.84 497.519 158.84 496.46 182.16 496.46 182.16 497.519ZM182.16 491.159 158.84 491.159 158.84 490.099 182.16 490.099 182.16 491.159ZM182.16 484.269 158.84 484.269 158.84 477.909 182.16 477.909 182.16 484.269Z" fill="#3B3838"/><path d="M180.388 482.274C180.388 482.567 179.913 482.804 179.328 482.804 178.743 482.804 178.268 482.567 178.268 482.274 178.268 481.981 178.743 481.744 179.328 481.744 179.913 481.744 180.388 481.981 180.388 482.274Z" fill="#3B3838"/></g></g></g><g clip-path="url(#clip4)"><g clip-path="url(#clip5)"><g clip-path="url(#clip6)"><path d="M225.28 474 197.72 474C196.554 474 195.6 474.954 195.6 476.12L195.6 524.88C195.6 526.046 196.554 527.001 197.72 527.001L225.28 527.001C226.446 527.001 227.4 526.047 227.4 524.88L227.4 476.12C227.4 474.954 226.446 474 225.28 474ZM211.5 512.984C209.745 512.984 208.32 511.557 208.32 509.805 208.32 508.049 209.745 506.625 211.5 506.625 213.255 506.625 214.68 508.049 214.68 509.805 214.68 511.558 213.255 512.984 211.5 512.984ZM223.16 497.519 199.84 497.519 199.84 496.46 223.16 496.46 223.16 497.519ZM223.16 491.159 199.84 491.159 199.84 490.099 223.16 490.099 223.16 491.159ZM223.16 484.269 199.84 484.269 199.84 477.909 223.16 477.909 223.16 484.269Z" fill="#3B3838"/><path d="M221.388 482.274C221.388 482.567 220.913 482.804 220.328 482.804 219.743 482.804 219.268 482.567 219.268 482.274 219.268 481.981 219.743 481.744 220.328 481.744 220.913 481.744 221.388 481.981 221.388 482.274Z" fill="#3B3838"/></g></g></g><g clip-path="url(#clip7)"><g clip-path="url(#clip8)"><g clip-path="url(#clip9)"><path d="M266.28 474 238.72 474C237.554 474 236.6 474.954 236.6 476.12L236.6 524.88C236.6 526.046 237.554 527.001 238.72 527.001L266.28 527.001C267.446 527.001 268.4 526.047 268.4 524.88L268.4 476.12C268.4 474.954 267.446 474 266.28 474ZM252.5 512.984C250.745 512.984 249.32 511.557 249.32 509.805 249.32 508.049 250.745 506.625 252.5 506.625 254.255 506.625 255.68 508.049 255.68 509.805 255.68 511.558 254.255 512.984 252.5 512.984ZM264.16 497.519 240.84 497.519 240.84 496.46 264.16 496.46 264.16 497.519ZM264.16 491.159 240.84 491.159 240.84 490.099 264.16 490.099 264.16 491.159ZM264.16 484.269 240.84 484.269 240.84 477.909 264.16 477.909 264.16 484.269Z" fill="#3B3838"/><path d="M262.388 482.274C262.388 482.567 261.913 482.804 261.328 482.804 260.743 482.804 260.268 482.567 260.268 482.274 260.268 481.981 260.743 481.744 261.328 481.744 261.913 481.744 262.388 481.981 262.388 482.274Z" fill="#3B3838"/></g></g></g><g clip-path="url(#clip10)"><g clip-path="url(#clip11)"><g clip-path="url(#clip12)"><path d="M307.28 474 279.72 474C278.554 474 277.6 474.954 277.6 476.12L277.6 524.88C277.6 526.046 278.554 527.001 279.72 527.001L307.28 527.001C308.446 527.001 309.4 526.047 309.4 524.88L309.4 476.12C309.4 474.954 308.446 474 307.28 474ZM293.5 512.984C291.745 512.984 290.32 511.557 290.32 509.805 290.32 508.049 291.745 506.625 293.5 506.625 295.255 506.625 296.68 508.049 296.68 509.805 296.68 511.558 295.255 512.984 293.5 512.984ZM305.16 497.519 281.84 497.519 281.84 496.46 305.16 496.46 305.16 497.519ZM305.16 491.159 281.84 491.159 281.84 490.099 305.16 490.099 305.16 491.159ZM305.16 484.269 281.84 484.269 281.84 477.909 305.16 477.909 305.16 484.269Z" fill="#3B3838"/><path d="M303.388 482.274C303.388 482.567 302.913 482.804 302.328 482.804 301.743 482.804 301.268 482.567 301.268 482.274 301.268 481.981 301.743 481.744 302.328 481.744 302.913 481.744 303.388 481.981 303.388 482.274Z" fill="#3B3838"/></g></g></g><g clip-path="url(#clip13)"><g clip-path="url(#clip14)"><g clip-path="url(#clip15)"><path d="M348.28 474 320.72 474C319.554 474 318.6 474.954 318.6 476.12L318.6 524.88C318.6 526.046 319.554 527.001 320.72 527.001L348.28 527.001C349.446 527.001 350.4 526.047 350.4 524.88L350.4 476.12C350.4 474.954 349.446 474 348.28 474ZM334.5 512.984C332.745 512.984 331.32 511.557 331.32 509.805 331.32 508.049 332.745 506.625 334.5 506.625 336.255 506.625 337.68 508.049 337.68 509.805 337.68 511.558 336.255 512.984 334.5 512.984ZM346.16 497.519 322.84 497.519 322.84 496.46 346.16 496.46 346.16 497.519ZM346.16 491.159 322.84 491.159 322.84 490.099 346.16 490.099 346.16 491.159ZM346.16 484.269 322.84 484.269 322.84 477.909 346.16 477.909 346.16 484.269Z" fill="#3B3838"/><path d="M344.388 482.274C344.388 482.567 343.913 482.804 343.328 482.804 342.743 482.804 342.268 482.567 342.268 482.274 342.268 481.981 342.743 481.744 343.328 481.744 343.913 481.744 344.388 481.981 344.388 482.274Z" fill="#3B3838"/></g></g></g><g clip-path="url(#clip16)"><g clip-path="url(#clip17)"><g clip-path="url(#clip18)"><path d="M430.28 474 402.72 474C401.554 474 400.6 474.954 400.6 476.12L400.6 524.88C400.6 526.046 401.554 527.001 402.72 527.001L430.28 527.001C431.446 527.001 432.4 526.047 432.4 524.88L432.4 476.12C432.4 474.954 431.446 474 430.28 474ZM416.5 512.984C414.745 512.984 413.32 511.557 413.32 509.805 413.32 508.049 414.745 506.625 416.5 506.625 418.255 506.625 419.68 508.049 419.68 509.805 419.68 511.558 418.255 512.984 416.5 512.984ZM428.16 497.519 404.84 497.519 404.84 496.46 428.16 496.46 428.16 497.519ZM428.16 491.159 404.84 491.159 404.84 490.099 428.16 490.099 428.16 491.159ZM428.16 484.269 404.84 484.269 404.84 477.909 428.16 477.909 428.16 484.269Z" fill="#3B3838"/><path d="M426.388 482.274C426.388 482.567 425.913 482.804 425.328 482.804 424.743 482.804 424.268 482.567 424.268 482.274 424.268 481.981 424.743 481.744 425.328 481.744 425.913 481.744 426.388 481.981 426.388 482.274Z" fill="#3B3838"/></g></g></g><g clip-path="url(#clip19)"><g clip-path="url(#clip20)"><g clip-path="url(#clip21)"><path d="M389.28 474 361.72 474C360.554 474 359.6 474.954 359.6 476.12L359.6 524.88C359.6 526.046 360.554 527.001 361.72 527.001L389.28 527.001C390.446 527.001 391.4 526.047 391.4 524.88L391.4 476.12C391.4 474.954 390.446 474 389.28 474ZM375.5 512.984C373.745 512.984 372.32 511.557 372.32 509.805 372.32 508.049 373.745 506.625 375.5 506.625 377.255 506.625 378.68 508.049 378.68 509.805 378.68 511.558 377.255 512.984 375.5 512.984ZM387.16 497.519 363.84 497.519 363.84 496.46 387.16 496.46 387.16 497.519ZM387.16 491.159 363.84 491.159 363.84 490.099 387.16 490.099 387.16 491.159ZM387.16 484.269 363.84 484.269 363.84 477.909 387.16 477.909 387.16 484.269Z" fill="#3B3838"/><path d="M385.388 482.274C385.388 482.567 384.913 482.804 384.328 482.804 383.743 482.804 383.268 482.567 383.268 482.274 383.268 481.981 383.743 481.744 384.328 481.744 384.913 481.744 385.388 481.981 385.388 482.274Z" fill="#3B3838"/></g></g></g><g clip-path="url(#clip22)"><g clip-path="url(#clip23)"><g clip-path="url(#clip24)"><path d="M471.28 474 443.72 474C442.554 474 441.6 474.954 441.6 476.12L441.6 524.88C441.6 526.046 442.554 527.001 443.72 527.001L471.28 527.001C472.446 527.001 473.4 526.047 473.4 524.88L473.4 476.12C473.4 474.954 472.446 474 471.28 474ZM457.5 512.984C455.745 512.984 454.32 511.557 454.32 509.805 454.32 508.049 455.745 506.625 457.5 506.625 459.255 506.625 460.68 508.049 460.68 509.805 460.68 511.558 459.255 512.984 457.5 512.984ZM469.16 497.519 445.84 497.519 445.84 496.46 469.16 496.46 469.16 497.519ZM469.16 491.159 445.84 491.159 445.84 490.099 469.16 490.099 469.16 491.159ZM469.16 484.269 445.84 484.269 445.84 477.909 469.16 477.909 469.16 484.269Z" fill="#3B3838"/><path d="M467.388 482.274C467.388 482.567 466.913 482.804 466.328 482.804 465.743 482.804 465.268 482.567 465.268 482.274 465.268 481.981 465.743 481.744 466.328 481.744 466.913 481.744 467.388 481.981 467.388 482.274Z" fill="#3B3838"/></g></g></g><g clip-path="url(#clip25)"><g clip-path="url(#clip26)"><g clip-path="url(#clip27)"><path d="M512.28 474 484.72 474C483.554 474 482.6 474.954 482.6 476.12L482.6 524.88C482.6 526.046 483.554 527.001 484.72 527.001L512.28 527.001C513.446 527.001 514.4 526.047 514.4 524.88L514.4 476.12C514.4 474.954 513.446 474 512.28 474ZM498.5 512.984C496.745 512.984 495.32 511.557 495.32 509.805 495.32 508.049 496.745 506.625 498.5 506.625 500.255 506.625 501.68 508.049 501.68 509.805 501.68 511.558 500.255 512.984 498.5 512.984ZM510.16 497.519 486.84 497.519 486.84 496.46 510.16 496.46 510.16 497.519ZM510.16 491.159 486.84 491.159 486.84 490.099 510.16 490.099 510.16 491.159ZM510.16 484.269 486.84 484.269 486.84 477.909 510.16 477.909 510.16 484.269Z" fill="#3B3838"/><path d="M508.388 482.274C508.388 482.567 507.913 482.804 507.328 482.804 506.743 482.804 506.268 482.567 506.268 482.274 506.268 481.981 506.743 481.744 507.328 481.744 507.913 481.744 508.388 481.981 508.388 482.274Z" fill="#3B3838"/></g></g></g><g clip-path="url(#clip28)"><g clip-path="url(#clip29)"><g clip-path="url(#clip30)"><path d="M184.28 532 156.72 532C155.554 532 154.6 532.954 154.6 534.12L154.6 582.88C154.6 584.046 155.554 585.001 156.72 585.001L184.28 585.001C185.446 585.001 186.4 584.047 186.4 582.88L186.4 534.12C186.4 532.954 185.446 532 184.28 532ZM170.5 570.984C168.745 570.984 167.32 569.557 167.32 567.805 167.32 566.049 168.745 564.625 170.5 564.625 172.255 564.625 173.68 566.049 173.68 567.805 173.68 569.558 172.255 570.984 170.5 570.984ZM182.16 555.519 158.84 555.519 158.84 554.46 182.16 554.46 182.16 555.519ZM182.16 549.159 158.84 549.159 158.84 548.099 182.16 548.099 182.16 549.159ZM182.16 542.269 158.84 542.269 158.84 535.909 182.16 535.909 182.16 542.269Z" fill="#3B3838"/><path d="M180.388 540.274C180.388 540.567 179.913 540.804 179.328 540.804 178.743 540.804 178.268 540.567 178.268 540.274 178.268 539.981 178.743 539.744 179.328 539.744 179.913 539.744 180.388 539.981 180.388 540.274Z" fill="#3B3838"/></g></g></g><g clip-path="url(#clip31)"><g clip-path="url(#clip32)"><g clip-path="url(#clip33)"><path d="M225.28 532 197.72 532C196.554 532 195.6 532.954 195.6 534.12L195.6 582.88C195.6 584.046 196.554 585.001 197.72 585.001L225.28 585.001C226.446 585.001 227.4 584.047 227.4 582.88L227.4 534.12C227.4 532.954 226.446 532 225.28 532ZM211.5 570.984C209.745 570.984 208.32 569.557 208.32 567.805 208.32 566.049 209.745 564.625 211.5 564.625 213.255 564.625 214.68 566.049 214.68 567.805 214.68 569.558 213.255 570.984 211.5 570.984ZM223.16 555.519 199.84 555.519 199.84 554.46 223.16 554.46 223.16 555.519ZM223.16 549.159 199.84 549.159 199.84 548.099 223.16 548.099 223.16 549.159ZM223.16 542.269 199.84 542.269 199.84 535.909 223.16 535.909 223.16 542.269Z" fill="#3B3838"/><path d="M221.388 540.274C221.388 540.567 220.913 540.804 220.328 540.804 219.743 540.804 219.268 540.567 219.268 540.274 219.268 539.981 219.743 539.744 220.328 539.744 220.913 539.744 221.388 539.981 221.388 540.274Z" fill="#3B3838"/></g></g></g><g clip-path="url(#clip34)"><g clip-path="url(#clip35)"><g clip-path="url(#clip36)"><path d="M266.28 532 238.72 532C237.554 532 236.6 532.954 236.6 534.12L236.6 582.88C236.6 584.046 237.554 585.001 238.72 585.001L266.28 585.001C267.446 585.001 268.4 584.047 268.4 582.88L268.4 534.12C268.4 532.954 267.446 532 266.28 532ZM252.5 570.984C250.745 570.984 249.32 569.557 249.32 567.805 249.32 566.049 250.745 564.625 252.5 564.625 254.255 564.625 255.68 566.049 255.68 567.805 255.68 569.558 254.255 570.984 252.5 570.984ZM264.16 555.519 240.84 555.519 240.84 554.46 264.16 554.46 264.16 555.519ZM264.16 549.159 240.84 549.159 240.84 548.099 264.16 548.099 264.16 549.159ZM264.16 542.269 240.84 542.269 240.84 535.909 264.16 535.909 264.16 542.269Z" fill="#3B3838"/><path d="M262.388 540.274C262.388 540.567 261.913 540.804 261.328 540.804 260.743 540.804 260.268 540.567 260.268 540.274 260.268 539.981 260.743 539.744 261.328 539.744 261.913 539.744 262.388 539.981 262.388 540.274Z" fill="#3B3838"/></g></g></g><g clip-path="url(#clip37)"><g clip-path="url(#clip38)"><g clip-path="url(#clip39)"><path d="M307.28 532 279.72 532C278.554 532 277.6 532.954 277.6 534.12L277.6 582.88C277.6 584.046 278.554 585.001 279.72 585.001L307.28 585.001C308.446 585.001 309.4 584.047 309.4 582.88L309.4 534.12C309.4 532.954 308.446 532 307.28 532ZM293.5 570.984C291.745 570.984 290.32 569.557 290.32 567.805 290.32 566.049 291.745 564.625 293.5 564.625 295.255 564.625 296.68 566.049 296.68 567.805 296.68 569.558 295.255 570.984 293.5 570.984ZM305.16 555.519 281.84 555.519 281.84 554.46 305.16 554.46 305.16 555.519ZM305.16 549.159 281.84 549.159 281.84 548.099 305.16 548.099 305.16 549.159ZM305.16 542.269 281.84 542.269 281.84 535.909 305.16 535.909 305.16 542.269Z" fill="#3B3838"/><path d="M303.388 540.274C303.388 540.567 302.913 540.804 302.328 540.804 301.743 540.804 301.268 540.567 301.268 540.274 301.268 539.981 301.743 539.744 302.328 539.744 302.913 539.744 303.388 539.981 303.388 540.274Z" fill="#3B3838"/></g></g></g><g clip-path="url(#clip40)"><g clip-path="url(#clip41)"><g clip-path="url(#clip42)"><path d="M348.28 532 320.72 532C319.554 532 318.6 532.954 318.6 534.12L318.6 582.88C318.6 584.046 319.554 585.001 320.72 585.001L348.28 585.001C349.446 585.001 350.4 584.047 350.4 582.88L350.4 534.12C350.4 532.954 349.446 532 348.28 532ZM334.5 570.984C332.745 570.984 331.32 569.557 331.32 567.805 331.32 566.049 332.745 564.625 334.5 564.625 336.255 564.625 337.68 566.049 337.68 567.805 337.68 569.558 336.255 570.984 334.5 570.984ZM346.16 555.519 322.84 555.519 322.84 554.46 346.16 554.46 346.16 555.519ZM346.16 549.159 322.84 549.159 322.84 548.099 346.16 548.099 346.16 549.159ZM346.16 542.269 322.84 542.269 322.84 535.909 346.16 535.909 346.16 542.269Z" fill="#3B3838"/><path d="M344.388 540.274C344.388 540.567 343.913 540.804 343.328 540.804 342.743 540.804 342.268 540.567 342.268 540.274 342.268 539.981 342.743 539.744 343.328 539.744 343.913 539.744 344.388 539.981 344.388 540.274Z" fill="#3B3838"/></g></g></g><g clip-path="url(#clip43)"><g clip-path="url(#clip44)"><g clip-path="url(#clip45)"><path d="M430.28 532 402.72 532C401.554 532 400.6 532.954 400.6 534.12L400.6 582.88C400.6 584.046 401.554 585.001 402.72 585.001L430.28 585.001C431.446 585.001 432.4 584.047 432.4 582.88L432.4 534.12C432.4 532.954 431.446 532 430.28 532ZM416.5 570.984C414.745 570.984 413.32 569.557 413.32 567.805 413.32 566.049 414.745 564.625 416.5 564.625 418.255 564.625 419.68 566.049 419.68 567.805 419.68 569.558 418.255 570.984 416.5 570.984ZM428.16 555.519 404.84 555.519 404.84 554.46 428.16 554.46 428.16 555.519ZM428.16 549.159 404.84 549.159 404.84 548.099 428.16 548.099 428.16 549.159ZM428.16 542.269 404.84 542.269 404.84 535.909 428.16 535.909 428.16 542.269Z" fill="#3B3838"/><path d="M426.388 540.274C426.388 540.567 425.913 540.804 425.328 540.804 424.743 540.804 424.268 540.567 424.268 540.274 424.268 539.981 424.743 539.744 425.328 539.744 425.913 539.744 426.388 539.981 426.388 540.274Z" fill="#3B3838"/></g></g></g><g clip-path="url(#clip46)"><g clip-path="url(#clip47)"><g clip-path="url(#clip48)"><path d="M389.28 532 361.72 532C360.554 532 359.6 532.954 359.6 534.12L359.6 582.88C359.6 584.046 360.554 585.001 361.72 585.001L389.28 585.001C390.446 585.001 391.4 584.047 391.4 582.88L391.4 534.12C391.4 532.954 390.446 532 389.28 532ZM375.5 570.984C373.745 570.984 372.32 569.557 372.32 567.805 372.32 566.049 373.745 564.625 375.5 564.625 377.255 564.625 378.68 566.049 378.68 567.805 378.68 569.558 377.255 570.984 375.5 570.984ZM387.16 555.519 363.84 555.519 363.84 554.46 387.16 554.46 387.16 555.519ZM387.16 549.159 363.84 549.159 363.84 548.099 387.16 548.099 387.16 549.159ZM387.16 542.269 363.84 542.269 363.84 535.909 387.16 535.909 387.16 542.269Z" fill="#3B3838"/><path d="M385.388 540.274C385.388 540.567 384.913 540.804 384.328 540.804 383.743 540.804 383.268 540.567 383.268 540.274 383.268 539.981 383.743 539.744 384.328 539.744 384.913 539.744 385.388 539.981 385.388 540.274Z" fill="#3B3838"/></g></g></g><g clip-path="url(#clip49)"><g clip-path="url(#clip50)"><g clip-path="url(#clip51)"><path d="M471.28 532 443.72 532C442.554 532 441.6 532.954 441.6 534.12L441.6 582.88C441.6 584.046 442.554 585.001 443.72 585.001L471.28 585.001C472.446 585.001 473.4 584.047 473.4 582.88L473.4 534.12C473.4 532.954 472.446 532 471.28 532ZM457.5 570.984C455.745 570.984 454.32 569.557 454.32 567.805 454.32 566.049 455.745 564.625 457.5 564.625 459.255 564.625 460.68 566.049 460.68 567.805 460.68 569.558 459.255 570.984 457.5 570.984ZM469.16 555.519 445.84 555.519 445.84 554.46 469.16 554.46 469.16 555.519ZM469.16 549.159 445.84 549.159 445.84 548.099 469.16 548.099 469.16 549.159ZM469.16 542.269 445.84 542.269 445.84 535.909 469.16 535.909 469.16 542.269Z" fill="#3B3838"/><path d="M467.388 540.274C467.388 540.567 466.913 540.804 466.328 540.804 465.743 540.804 465.268 540.567 465.268 540.274 465.268 539.981 465.743 539.744 466.328 539.744 466.913 539.744 467.388 539.981 467.388 540.274Z" fill="#3B3838"/></g></g></g><g clip-path="url(#clip52)"><g clip-path="url(#clip53)"><g clip-path="url(#clip54)"><path d="M512.28 532 484.72 532C483.554 532 482.6 532.954 482.6 534.12L482.6 582.88C482.6 584.046 483.554 585.001 484.72 585.001L512.28 585.001C513.446 585.001 514.4 584.047 514.4 582.88L514.4 534.12C514.4 532.954 513.446 532 512.28 532ZM498.5 570.984C496.745 570.984 495.32 569.557 495.32 567.805 495.32 566.049 496.745 564.625 498.5 564.625 500.255 564.625 501.68 566.049 501.68 567.805 501.68 569.558 500.255 570.984 498.5 570.984ZM510.16 555.519 486.84 555.519 486.84 554.46 510.16 554.46 510.16 555.519ZM510.16 549.159 486.84 549.159 486.84 548.099 510.16 548.099 510.16 549.159ZM510.16 542.269 486.84 542.269 486.84 535.909 510.16 535.909 510.16 542.269Z" fill="#3B3838"/><path d="M508.388 540.274C508.388 540.567 507.913 540.804 507.328 540.804 506.743 540.804 506.268 540.567 506.268 540.274 506.268 539.981 506.743 539.744 507.328 539.744 507.913 539.744 508.388 539.981 508.388 540.274Z" fill="#3B3838"/></g></g></g><path d="M0 0 328.711 0.000104987" stroke="#3B3838" stroke-width="0.666667" stroke-miterlimit="8" stroke-dasharray="2.66667 2" fill="none" fill-rule="evenodd" transform="matrix(-1 0 0 1 499.211 631.5)"/><path d="M0 0 0.127244 46.4678" stroke="#3B3838" stroke-width="0.666667" stroke-miterlimit="8" stroke-dasharray="2.66667 2" fill="none" fill-rule="evenodd" transform="matrix(-1 0 0 1 211.627 585.5)"/><path d="M0 0 0.127244 46.4678" stroke="#3B3838" stroke-width="0.666667" stroke-miterlimit="8" stroke-dasharray="2.66667 2" fill="none" fill-rule="evenodd" transform="matrix(-1 0 0 1 253.627 585.5)"/><path d="M0 0 0.127244 46.4678" stroke="#3B3838" stroke-width="0.666667" stroke-miterlimit="8" stroke-dasharray="2.66667 2" fill="none" fill-rule="evenodd" transform="matrix(-1 0 0 1 294.627 585.5)"/><path d="M0 0 0.127244 46.4678" stroke="#3B3838" stroke-width="0.666667" stroke-miterlimit="8" stroke-dasharray="2.66667 2" fill="none" fill-rule="evenodd" transform="matrix(-1 0 0 1 334.627 585.5)"/><path d="M0 0 0.127244 46.4678" stroke="#3B3838" stroke-width="0.666667" stroke-miterlimit="8" stroke-dasharray="2.66667 2" fill="none" fill-rule="evenodd" transform="matrix(-1 0 0 1 375.627 585.5)"/><path d="M0 0 0.127244 46.4678" stroke="#3B3838" stroke-width="0.666667" stroke-miterlimit="8" stroke-dasharray="2.66667 2" fill="none" fill-rule="evenodd" transform="matrix(-1 0 0 1 417.627 585.5)"/><path d="M0 0 0.127244 46.4678" stroke="#3B3838" stroke-width="0.666667" stroke-miterlimit="8" stroke-dasharray="2.66667 2" fill="none" fill-rule="evenodd" transform="matrix(-1 0 0 1 458.627 585.5)"/><path d="M0 0 0.127244 46.4678" stroke="#3B3838" stroke-width="0.666667" stroke-miterlimit="8" stroke-dasharray="2.66667 2" fill="none" fill-rule="evenodd" transform="matrix(-1 0 0 1 498.627 585.5)"/><rect x="293" y="602" width="81" height="40" fill="#FFFFFF" fill-opacity="0.501961"/><g clip-path="url(#clip55)"><g clip-path="url(#clip56)"><g clip-path="url(#clip57)"><path d="M51.2383 17.0117 48.5977 17.0117 48.5977 14.7266C48.5977 14.3059 48.2566 13.9648 47.8359 13.9648L4.16406 13.9648C3.74339 13.9648 3.40234 14.3059 3.40234 14.7266L3.40234 17.0117 0.761719 17.0117C0.341047 17.0117 0 17.3528 0 17.7734L0 29.25C0 29.6707 0.341047 30.0117 0.761719 30.0117 1.18239 30.0117 1.52344 29.6707 1.52344 29.25L1.52344 18.5352 6.46618 18.5352C6.88685 18.5352 7.2279 18.1941 7.2279 17.7734 7.2279 17.3528 6.88685 17.0117 6.46618 17.0117L4.92578 17.0117 4.92578 15.4883 47.0742 15.4883 47.0742 17.0117 9.75 17.0117C9.32933 17.0117 8.98828 17.3528 8.98828 17.7734 8.98828 18.1941 9.32933 18.5352 9.75 18.5352L50.4766 18.5352 50.4766 33.4648 45.5254 33.4648C45.1047 33.4648 44.7637 33.8059 44.7637 34.2266 44.7637 34.6472 45.1047 34.9883 45.5254 34.9883L47.0742 34.9883 47.0742 36.5117 4.92578 36.5117 4.92578 34.9883 42.2246 34.9883C42.6453 34.9883 42.9863 34.6472 42.9863 34.2266 42.9863 33.8059 42.6453 33.4648 42.2246 33.4648L1.52344 33.4648 1.52344 32.5C1.52344 32.0793 1.18239 31.7383 0.761719 31.7383 0.341047 31.7383 0 32.0793 0 32.5L0 34.2266C0 34.6472 0.341047 34.9883 0.761719 34.9883L3.40234 34.9883 3.40234 37.2734C3.40234 37.6941 3.74339 38.0352 4.16406 38.0352L47.8359 38.0352C48.2566 38.0352 48.5977 37.6941 48.5977 37.2734L48.5977 34.9883 51.2383 34.9883C51.659 34.9883 52 34.6472 52 34.2266L52 17.7734C52 17.3528 51.659 17.0117 51.2383 17.0117Z" fill="#3B3838" transform="matrix(1 0 0 1.01923 293 589)"/><path d="M29.3586 21.9883 22.4523 21.9883C22.0316 21.9883 21.6906 22.3293 21.6906 22.75L21.6906 27.42C21.6906 27.8407 22.0316 28.1818 22.4523 28.1818L23.037 28.1818 23.037 29.25C23.0371 29.6707 23.3782 30.0117 23.7988 30.0117L28.0122 30.0117C28.4328 30.0117 28.7739 29.6707 28.7739 29.25L28.7739 28.1818 29.3586 28.1818C29.7792 28.1818 30.1203 27.8407 30.1203 27.42L30.1203 22.75C30.1203 22.3293 29.7792 21.9883 29.3586 21.9883ZM28.597 26.6583 28.0123 26.6583C27.5916 26.6583 27.2505 26.9994 27.2505 27.42L27.2505 28.4883 24.5607 28.4883 24.5607 27.42C24.5607 26.9994 24.2196 26.6583 23.7989 26.6583L23.2142 26.6583 23.2142 23.5117 28.597 23.5117 28.597 26.6583Z" fill="#3B3838" transform="matrix(1 0 0 1.01923 293 589)"/><path d="M19.9326 21.9883 13.0263 21.9883C12.6056 21.9883 12.2646 22.3293 12.2646 22.75L12.2646 27.42C12.2646 27.8407 12.6056 28.1818 13.0263 28.1818L13.611 28.1818 13.611 29.25C13.611 29.6707 13.952 30.0117 14.3727 30.0117L18.5861 30.0117C19.0068 30.0117 19.3479 29.6707 19.3479 29.25L19.3479 28.1818 19.9326 28.1818C20.3532 28.1818 20.6943 27.8407 20.6943 27.42L20.6943 22.75C20.6943 22.3293 20.3532 21.9883 19.9326 21.9883ZM19.1708 26.6583 18.5861 26.6583C18.1655 26.6583 17.8244 26.9994 17.8244 27.42L17.8244 28.4883 15.1344 28.4883 15.1344 27.42C15.1344 26.9994 14.7934 26.6583 14.3727 26.6583L13.788 26.6583 13.788 23.5117 13.788 23.5117 19.1708 23.5117 19.1708 26.6583Z" fill="#3B3838" transform="matrix(1 0 0 1.01923 293 589)"/><path d="M38.775 21.9883 31.8688 21.9883C31.4481 21.9883 31.1071 22.3293 31.1071 22.75L31.1071 27.42C31.1071 27.8407 31.4481 28.1818 31.8688 28.1818L32.4535 28.1818 32.4535 29.25C32.4535 29.6707 32.7945 30.0117 33.2152 30.0117L37.4286 30.0117C37.8493 30.0117 38.1903 29.6707 38.1903 29.25L38.1903 28.1818 38.775 28.1818C39.1957 28.1818 39.5368 27.8407 39.5368 27.42L39.5368 22.75C39.5368 22.3293 39.1957 21.9883 38.775 21.9883ZM38.0133 26.6583 37.4286 26.6583C37.0079 26.6583 36.6669 26.9994 36.6669 27.42L36.6669 28.4883 33.9769 28.4883 33.9769 27.42C33.9769 26.9994 33.6359 26.6583 33.2152 26.6583L32.6305 26.6583 32.6305 23.5117 38.0133 23.5117 38.0133 26.6583Z" fill="#3B3838" transform="matrix(1 0 0 1.01923 293 589)"/><path d="M48.1913 21.9883 41.2851 21.9883C40.8644 21.9883 40.5233 22.3293 40.5233 22.75L40.5233 27.42C40.5233 27.8407 40.8644 28.1818 41.2851 28.1818L41.8698 28.1818 41.8698 29.25C41.8699 29.6707 42.2109 30.0117 42.6316 30.0117L46.8449 30.0117C47.2656 30.0117 47.6066 29.6707 47.6066 29.25L47.6066 28.1818 48.1913 28.1818C48.612 28.1818 48.953 27.8407 48.953 27.42L48.953 22.75C48.953 22.3293 48.612 21.9883 48.1913 21.9883ZM47.4297 26.6583 46.845 26.6583C46.4243 26.6583 46.0833 26.9994 46.0833 27.42L46.0833 28.4883 43.3934 28.4883 43.3934 27.42C43.3934 26.9994 43.0523 26.6583 42.6317 26.6583L42.0469 26.6583 42.0469 23.5117 47.4297 23.5117 47.4297 26.6583Z" fill="#3B3838" transform="matrix(1 0 0 1.01923 293 589)"/><path d="M9.94287 22.1349 4.19148 22.1349C3.77081 22.1349 3.42977 22.476 3.42977 22.8967 3.42977 23.3173 3.77081 23.6584 4.19148 23.6584L9.94287 23.6584C10.3635 23.6584 10.7046 23.3173 10.7046 22.8967 10.7046 22.476 10.3635 22.1349 9.94287 22.1349Z" fill="#3B3838" transform="matrix(1 0 0 1.01923 293 589)"/><path d="M9.94287 24.2038 4.19148 24.2038C3.77081 24.2038 3.42977 24.5448 3.42977 24.9655 3.42977 25.3862 3.77081 25.7272 4.19148 25.7272L9.94287 25.7272C10.3635 25.7272 10.7046 25.3862 10.7046 24.9655 10.7046 24.5448 10.3635 24.2038 9.94287 24.2038Z" fill="#3B3838" transform="matrix(1 0 0 1.01923 293 589)"/><path d="M9.94287 26.2728 4.19148 26.2728C3.77081 26.2728 3.42977 26.6138 3.42977 27.0345 3.42977 27.4552 3.77081 27.7962 4.19148 27.7962L9.94287 27.7962C10.3635 27.7962 10.7046 27.4552 10.7046 27.0345 10.7046 26.6138 10.3635 26.2728 9.94287 26.2728Z" fill="#3B3838" transform="matrix(1 0 0 1.01923 293 589)"/><path d="M9.94287 28.3416 4.19148 28.3416C3.77081 28.3416 3.42977 28.6827 3.42977 29.1033 3.42977 29.524 3.77081 29.8651 4.19148 29.8651L9.94287 29.8651C10.3635 29.8651 10.7046 29.524 10.7046 29.1033 10.7046 28.6827 10.3635 28.3416 9.94287 28.3416Z" fill="#3B3838" transform="matrix(1 0 0 1.01923 293 589)"/></g></g></g><g clip-path="url(#clip58)"><g clip-path="url(#clip59)"><g clip-path="url(#clip60)"><path d="M372.224 620.339 369.532 620.339 369.532 618.01C369.532 617.581 369.185 617.233 368.756 617.233L324.244 617.233C323.815 617.233 323.468 617.581 323.468 618.01L323.468 620.339 320.776 620.339C320.348 620.339 320 620.686 320 621.115L320 632.813C320 633.241 320.348 633.589 320.776 633.589 321.205 633.589 321.553 633.241 321.553 632.813L321.553 621.892 326.591 621.892C327.019 621.892 327.367 621.544 327.367 621.115 327.367 620.686 327.019 620.339 326.591 620.339L325.021 620.339 325.021 618.786 367.979 618.786 367.979 620.339 329.938 620.339C329.509 620.339 329.161 620.686 329.161 621.115 329.161 621.544 329.509 621.892 329.938 621.892L371.447 621.892 371.447 637.108 366.401 637.108C365.972 637.108 365.625 637.456 365.625 637.885 365.625 638.314 365.972 638.661 366.401 638.661L367.979 638.661 367.979 640.214 325.021 640.214 325.021 638.661 363.037 638.661C363.465 638.661 363.813 638.314 363.813 637.885 363.813 637.456 363.465 637.108 363.037 637.108L321.553 637.108 321.553 636.125C321.553 635.696 321.205 635.349 320.776 635.349 320.348 635.349 320 635.696 320 636.125L320 637.885C320 638.314 320.348 638.661 320.776 638.661L323.468 638.661 323.468 640.99C323.468 641.419 323.815 641.767 324.244 641.767L368.756 641.767C369.185 641.767 369.532 641.419 369.532 640.99L369.532 638.661 372.224 638.661C372.652 638.661 373 638.314 373 637.885L373 621.115C373 620.686 372.652 620.339 372.224 620.339Z" fill="#3B3838"/><path d="M349.923 625.411 342.884 625.411C342.455 625.411 342.108 625.759 342.108 626.188L342.108 630.947C342.108 631.376 342.455 631.724 342.884 631.724L343.48 631.724 343.48 632.813C343.48 633.241 343.828 633.589 344.257 633.589L348.551 633.589C348.98 633.589 349.327 633.241 349.327 632.813L349.327 631.724 349.923 631.724C350.352 631.724 350.7 631.376 350.7 630.947L350.7 626.188C350.7 625.759 350.352 625.411 349.923 625.411ZM349.147 630.171 348.551 630.171C348.122 630.171 347.775 630.519 347.775 630.947L347.775 632.036 345.033 632.036 345.033 630.947C345.033 630.519 344.685 630.171 344.257 630.171L343.661 630.171 343.661 626.964 349.147 626.964 349.147 630.171Z" fill="#3B3838"/><path d="M340.316 625.411 333.277 625.411C332.848 625.411 332.5 625.759 332.5 626.188L332.5 630.947C332.5 631.376 332.848 631.724 333.277 631.724L333.873 631.724 333.873 632.813C333.873 633.241 334.22 633.589 334.649 633.589L338.944 633.589C339.372 633.589 339.72 633.241 339.72 632.813L339.72 631.724 340.316 631.724C340.745 631.724 341.092 631.376 341.092 630.947L341.092 626.188C341.092 625.759 340.745 625.411 340.316 625.411ZM339.54 630.171 338.944 630.171C338.515 630.171 338.167 630.519 338.167 630.947L338.167 632.036 335.425 632.036 335.425 630.947C335.425 630.519 335.078 630.171 334.649 630.171L334.053 630.171 334.053 626.964 334.053 626.964 339.54 626.964 339.54 630.171Z" fill="#3B3838"/><path d="M359.521 625.411 352.482 625.411C352.053 625.411 351.705 625.759 351.705 626.188L351.705 630.947C351.705 631.376 352.053 631.724 352.482 631.724L353.078 631.724 353.078 632.813C353.078 633.241 353.425 633.589 353.854 633.589L358.148 633.589C358.577 633.589 358.925 633.241 358.925 632.813L358.925 631.724 359.521 631.724C359.949 631.724 360.297 631.376 360.297 630.947L360.297 626.188C360.297 625.759 359.949 625.411 359.521 625.411ZM358.744 630.171 358.148 630.171C357.72 630.171 357.372 630.519 357.372 630.947L357.372 632.036 354.63 632.036 354.63 630.947C354.63 630.519 354.283 630.171 353.854 630.171L353.258 630.171 353.258 626.964 358.744 626.964 358.744 630.171Z" fill="#3B3838"/><path d="M369.118 625.411 362.079 625.411C361.65 625.411 361.303 625.759 361.303 626.188L361.303 630.947C361.303 631.376 361.65 631.724 362.079 631.724L362.675 631.724 362.675 632.813C362.675 633.241 363.023 633.589 363.451 633.589L367.746 633.589C368.174 633.589 368.522 633.241 368.522 632.813L368.522 631.724 369.118 631.724C369.547 631.724 369.894 631.376 369.894 630.947L369.894 626.188C369.894 625.759 369.547 625.411 369.118 625.411ZM368.342 630.171 367.746 630.171C367.317 630.171 366.969 630.519 366.969 630.947L366.969 632.036 364.228 632.036 364.228 630.947C364.228 630.519 363.88 630.171 363.452 630.171L362.855 630.171 362.855 626.964 368.342 626.964 368.342 630.171Z" fill="#3B3838"/><path d="M330.134 625.561 324.272 625.561C323.843 625.561 323.496 625.908 323.496 626.337 323.496 626.766 323.843 627.113 324.272 627.113L330.134 627.113C330.563 627.113 330.91 626.766 330.91 626.337 330.91 625.908 330.563 625.561 330.134 625.561Z" fill="#3B3838"/><path d="M330.134 627.669 324.272 627.669C323.843 627.669 323.496 628.017 323.496 628.446 323.496 628.874 323.843 629.222 324.272 629.222L330.134 629.222C330.563 629.222 330.91 628.874 330.91 628.446 330.91 628.017 330.563 627.669 330.134 627.669Z" fill="#3B3838"/><path d="M330.134 629.778 324.272 629.778C323.843 629.778 323.496 630.126 323.496 630.554 323.496 630.983 323.843 631.331 324.272 631.331L330.134 631.331C330.563 631.331 330.91 630.983 330.91 630.554 330.91 630.126 330.563 629.778 330.134 629.778Z" fill="#3B3838"/><path d="M330.134 631.887 324.272 631.887C323.843 631.887 323.496 632.234 323.496 632.663 323.496 633.092 323.843 633.439 324.272 633.439L330.134 633.439C330.563 633.439 330.91 633.092 330.91 632.663 330.91 632.234 330.563 631.887 330.134 631.887Z" fill="#3B3838"/></g></g></g><rect x="540" y="466" width="432" height="136" fill="#E7E6E6"/><text font-family="Arial,Arial_MSFontService,sans-serif" font-weight="400" font-size="19" transform="translate(539.783 484)">8 CPUs (144 total) <tspan font-size="19" x="48" y="23">-</tspan><tspan font-size="19" x="59.3333" y="23">Intel(R) Core(TM) i7</tspan><tspan font-size="19" x="224.667" y="23">-</tspan><tspan font-size="19" x="230.833" y="23">8700 CPU @ 3.20GHz</tspan><tspan font-size="19" x="0" y="45">32GB</tspan><tspan font-size="19" x="52.8333" y="45">RAM (576GB total) </tspan><tspan font-size="19" x="48" y="67">-</tspan><tspan font-size="19" x="59.3333" y="67">2x 16GB DIMM DDR4 2666 MHz</tspan><tspan font-size="19" x="0" y="90">1</tspan><tspan font-size="19" x="10.3333" y="90">2</tspan><tspan font-size="19" x="20.6667" y="90">TB HDD Disk (216TB total)</tspan><tspan font-size="19" x="48" y="112">-</tspan><tspan font-size="19" x="59.3333" y="112">4x</tspan><tspan font-size="19" x="84.1667" y="112">4TB ST4000DM004</tspan>-<tspan font-size="19" x="254.833" y="112">2CV1</tspan></text></g></svg>