<svg width="566" height="423" xmlns="http://www.w3.org/2000/svg" xmlns:xlink="http://www.w3.org/1999/xlink" overflow="hidden"><defs><clipPath id="clip0"><rect x="-2" y="170" width="566" height="423"/></clipPath></defs><g clip-path="url(#clip0)" transform="translate(2 -170)"><path d="M86.5001 279.5 158.5 207.5 374.5 207.5 374.5 423.5 302.5 495.5 86.5001 495.5ZM86.5001 279.5 302.5 279.5 374.5 207.5M302.5 279.5 302.5 495.5" stroke="#3B3838" stroke-width="1.33333" stroke-miterlimit="8" fill="none" fill-rule="evenodd"/><path d="M0 0 71.4728 71.4728" stroke="#333F50" stroke-width="1.33333" stroke-miterlimit="8" fill="none" fill-rule="evenodd" transform="matrix(1 0 0 -1 86.5001 495.973)"/><path d="M158.5 423.5 375.147 423.5" stroke="#333F50" stroke-width="1.33333" stroke-miterlimit="8" fill="none" fill-rule="evenodd"/><path d="M158.5 207.5 158.5 423.527" stroke="#333F50" stroke-width="1.33333" stroke-miterlimit="8" fill="none" fill-rule="evenodd"/><path d="M1.5 7.49995 1.5001 208.527-1.4999 208.527-1.5 7.49996ZM-4.5 9 0 0 4.5 9ZM4.5001 207.027 0.000104987 216.027-4.4999 207.027Z" fill="#ED7D31" transform="matrix(1 0 0 -1 390.5 423.527)"/><text fill="#ED7D31" font-family="Arial,Arial_MSFontService,sans-serif" font-weight="400" font-size="19" transform="translate(397.824 226)">Structured<tspan font-size="19" x="0" y="189">Unstructured</tspan><tspan font-size="27" x="0" y="96">Variety</tspan><tspan font-size="27" x="0" y="128">(data model)</tspan></text><path d="M1.5 7.49995 1.5001 208.527-1.4999 208.527-1.5 7.49996ZM-4.5 9 0 0 4.5 9ZM4.5001 207.027 0.000104987 216.027-4.4999 207.027Z" fill="#00B050" transform="matrix(6.12323e-17 1 1 -6.12323e-17 86.5001 507.5)"/><text fill="#00B050" font-family="Arial,Arial_MSFontService,sans-serif" font-weight="400" font-size="19" transform="matrix(0.750803 0.660526 -0.660526 0.750803 288.044 522)">Low<tspan font-size="19" x="-0.177319" y="22.7984">(</tspan><tspan font-size="19" x="5.94096" y="22.7434">push</tspan><tspan font-size="19" x="46.5113" y="23.0128">)</tspan><tspan font-size="19" x="-153.825" y="135.329">High</tspan><tspan font-size="19" x="-153.342" y="158.878">(pull)</tspan></text><text fill="#00B050" font-family="Arial,Arial_MSFontService,sans-serif" font-weight="400" font-size="27" transform="translate(150.246 534)">Velocity<tspan font-size="27" x="-5.07333" y="32">(</tspan><tspan font-size="27" x="3.75999" y="32">latency</tspan><tspan font-size="27" x="88.26" y="32">)</tspan></text><path d="M1.50001 7.50002 1.5001 117.3-1.4999 117.3-1.49999 7.50002ZM-4.49999 9 0 0 4.50001 9ZM4.5001 115.8 0.000104987 124.8-4.4999 115.8Z" fill="#0070C0" transform="matrix(0.709957 0.704245 0.704245 -0.709957 65.7021 280.595)"/><text fill="#0070C0" font-family="Arial,Arial_MSFontService,sans-serif" font-weight="400" font-size="19" transform="translate(23.8501 276)">High<tspan font-size="27" x="-9.10383" y="-42">Volume</tspan><tspan font-size="19" x="71.5838" y="-82">Small</tspan></text></g></svg>