<svg width="482" height="299" xmlns="http://www.w3.org/2000/svg" xmlns:xlink="http://www.w3.org/1999/xlink" overflow="hidden"><defs><clipPath id="clip0"><rect x="727" y="69" width="482" height="299"/></clipPath></defs><g clip-path="url(#clip0)" transform="translate(-727 -69)"><path d="M728.5 151.5 800.5 79.5001 1016.5 79.5001 1016.5 295.5 944.5 367.5 728.5 367.5ZM728.5 151.5 944.5 151.5 1016.5 79.5001M944.5 151.5 944.5 367.5" stroke="#3B3838" stroke-width="1.33333" stroke-miterlimit="8" fill="none" fill-rule="evenodd"/><path d="M0 0 71.4728 71.4728" stroke="#333F50" stroke-width="1.33333" stroke-miterlimit="8" fill="none" fill-rule="evenodd" transform="matrix(1 0 0 -1 728.5 366.973)"/><path d="M800.5 295.5 1017.15 295.5" stroke="#333F50" stroke-width="1.33333" stroke-miterlimit="8" fill="none" fill-rule="evenodd"/><path d="M800.5 79.5001 800.5 295.527" stroke="#333F50" stroke-width="1.33333" stroke-miterlimit="8" fill="none" fill-rule="evenodd"/><path d="M1.5 7.49995 1.5001 208.527-1.4999 208.527-1.5 7.49996ZM-4.5 9 0 0 4.5 9ZM4.5001 207.027 0.000104987 216.027-4.4999 207.027Z" fill="#ED7D31" transform="matrix(1 0 0 -1 1035.5 295.527)"/><text fill="#ED7D31" font-family="Arial,Arial_MSFontService,sans-serif" font-weight="400" font-size="19" transform="translate(1042.59 98)">Structured<tspan font-size="19" x="0" y="189">Unstructured</tspan><tspan font-size="27" x="0" y="95">Variety</tspan><tspan font-size="27" x="0" y="127">(data model)</tspan></text><path d="M1007 296.5C1007 291.253 1011.25 287 1016.5 287 1021.75 287 1026 291.253 1026 296.5 1026 301.747 1021.75 306 1016.5 306 1011.25 306 1007 301.747 1007 296.5Z" fill="#FFC000" fill-rule="evenodd"/><path d="M1007 79.5C1007 74.2533 1011.25 70 1016.5 70 1021.75 70 1026 74.2533 1026 79.5 1026 84.7467 1021.75 89 1016.5 89 1011.25 89 1007 84.7467 1007 79.5Z" fill="#FFC000" fill-rule="evenodd"/></g></svg>