<svg width="570" height="423" xmlns="http://www.w3.org/2000/svg" xmlns:xlink="http://www.w3.org/1999/xlink" overflow="hidden"><defs><clipPath id="clip0"><rect x="355" y="173" width="570" height="423"/></clipPath></defs><g clip-path="url(#clip0)" transform="translate(-355 -173)"><path d="M445.5 282.5 517.5 210.5 733.5 210.5 733.5 426.5 661.5 498.5 445.5 498.5ZM445.5 282.5 661.5 282.5 733.5 210.5M661.5 282.5 661.5 498.5" stroke="#3B3838" stroke-width="1.33333" stroke-miterlimit="8" fill="none" fill-rule="evenodd"/><path d="M0 0 71.4728 71.4728" stroke="#333F50" stroke-width="1.33333" stroke-miterlimit="8" fill="none" fill-rule="evenodd" transform="matrix(1 0 0 -1 445.5 498.973)"/><path d="M516.5 426.5 733.147 426.5" stroke="#333F50" stroke-width="1.33333" stroke-miterlimit="8" fill="none" fill-rule="evenodd"/><path d="M517.5 210.5 517.5 426.527" stroke="#333F50" stroke-width="1.33333" stroke-miterlimit="8" fill="none" fill-rule="evenodd"/><path d="M1.5 7.49995 1.5001 208.527-1.4999 208.527-1.5 7.49996ZM-4.5 9 0 0 4.5 9ZM4.5001 207.027 0.000104987 216.027-4.4999 207.027Z" fill="#ED7D31" transform="matrix(1 0 0 -1 749.5 426.527)"/><text fill="#ED7D31" font-family="Arial,Arial_MSFontService,sans-serif" font-weight="400" font-size="19" transform="translate(756.292 230)">Structured<tspan font-size="19" x="0" y="188">Unstructured</tspan></text><path d="M1.5 7.49995 1.5001 208.527-1.4999 208.527-1.5 7.49996ZM-4.5 9 0 0 4.5 9ZM4.5001 207.027 0.000104987 216.027-4.4999 207.027Z" fill="#00B050" transform="matrix(6.12323e-17 1 1 -6.12323e-17 445.5 510.5)"/><text fill="#00B050" font-family="Arial,Arial_MSFontService,sans-serif" font-weight="400" font-size="19" transform="matrix(0.750803 0.660526 -0.660526 0.750803 646.512 525)">Low<tspan font-size="19" x="-0.177319" y="22.7984">(</tspan><tspan font-size="19" x="5.94096" y="22.7434">push</tspan><tspan font-size="19" x="46.5112" y="23.0128">)</tspan><tspan font-size="19" x="-153.825" y="135.329">High</tspan><tspan font-size="19" x="-153.342" y="158.878">(pull)</tspan></text><path d="M1.50001 7.50002 1.5001 117.3-1.4999 117.3-1.49999 7.50002ZM-4.49999 9 0 0 4.50001 9ZM4.5001 115.8 0.000104987 124.8-4.4999 115.8Z" fill="#0070C0" transform="matrix(0.709957 0.704245 0.704245 -0.709957 424.17 283.659)"/><text fill="#0070C0" font-family="Arial,Arial_MSFontService,sans-serif" font-weight="400" font-size="19" transform="translate(382.318 279)">High<tspan font-size="19" x="71.5838" y="-82">Small</tspan></text><rect x="426" y="278" width="39" height="224" fill="#FFC000" fill-opacity="0.4"/><text font-family="Arial,Arial_MSFontService,sans-serif" font-weight="700" font-size="24" transform="matrix(6.12323e-17 -1 1 6.12323e-17 453.763 424)">Batch</text><rect x="640" y="281" width="39" height="224" fill="#FFC000" fill-opacity="0.4"/><text font-family="Arial,Arial_MSFontService,sans-serif" font-weight="700" font-size="24" transform="matrix(6.12323e-17 -1 1 6.12323e-17 668.118 433)">Stream</text><text fill="#00B050" font-family="Arial,Arial_MSFontService,sans-serif" font-weight="400" font-size="27" transform="translate(510.493 537)">Velocity<tspan font-size="27" x="-5.07333" y="32">(</tspan><tspan font-size="27" x="3.76001" y="32">latency</tspan><tspan font-size="27" x="88.26" y="32">)</tspan><tspan fill="#ED7D31" font-size="27" x="248.345" y="-225">Variety</tspan><tspan fill="#ED7D31" font-size="27" x="248.345" y="-193">(data model)</tspan><tspan fill="#0070C0" font-size="27" x="-139.126" y="-297">Volume</tspan></text></g></svg>