<svg width="378" height="326" xmlns="http://www.w3.org/2000/svg" xmlns:xlink="http://www.w3.org/1999/xlink" overflow="hidden"><defs><clipPath id="clip0"><rect x="135" y="51" width="378" height="326"/></clipPath></defs><g clip-path="url(#clip0)" transform="translate(-135 -51)"><path d="M223.5 160.5 295.5 88.5001 511.5 88.5001 511.5 304.5 439.5 376.5 223.5 376.5ZM223.5 160.5 439.5 160.5 511.5 88.5001M439.5 160.5 439.5 376.5" stroke="#3B3838" stroke-width="1.33333" stroke-miterlimit="8" fill="none" fill-rule="evenodd"/><path d="M0 0 71.4728 71.4728" stroke="#333F50" stroke-width="1.33333" stroke-miterlimit="8" fill="none" fill-rule="evenodd" transform="matrix(1 0 0 -1 223.5 375.973)"/><path d="M295.5 304.5 512.147 304.5" stroke="#333F50" stroke-width="1.33333" stroke-miterlimit="8" fill="none" fill-rule="evenodd"/><path d="M295.5 88.5001 295.5 304.527" stroke="#333F50" stroke-width="1.33333" stroke-miterlimit="8" fill="none" fill-rule="evenodd"/><path d="M1.50001 7.50002 1.5001 117.3-1.4999 117.3-1.49999 7.50002ZM-4.49999 9 0 0 4.50001 9ZM4.5001 115.8 0.000104987 124.8-4.4999 115.8Z" fill="#0070C0" transform="matrix(0.709957 0.704245 0.704245 -0.709957 202.787 161.474)"/><text fill="#0070C0" font-family="Arial,Arial_MSFontService,sans-serif" font-weight="400" font-size="19" transform="translate(160.935 157)">High<tspan font-size="27" x="-9.10384" y="-42">Volume</tspan><tspan font-size="19" x="71.5838" y="-82">Small</tspan></text><path d="M285 91.5C285 86.2533 289.253 82 294.5 82 299.747 82 304 86.2533 304 91.5 304 96.7467 299.747 101 294.5 101 289.253 101 285 96.7467 285 91.5Z" fill="#FFC000" fill-rule="evenodd"/><path d="M214 162.5C214 157.253 218.253 153 223.5 153 228.747 153 233 157.253 233 162.5 233 167.747 228.747 172 223.5 172 218.253 172 214 167.747 214 162.5Z" fill="#FFC000" fill-rule="evenodd"/></g></svg>