<svg width="790" height="235" xmlns="http://www.w3.org/2000/svg" xmlns:xlink="http://www.w3.org/1999/xlink" overflow="hidden"><defs><clipPath id="clip0"><rect x="95" y="249" width="790" height="235"/></clipPath></defs><g clip-path="url(#clip0)" transform="translate(-95 -249)"><rect x="331.5" y="285.5" width="161" height="38" stroke="#2F528F" stroke-width="1.33333" stroke-miterlimit="8" fill="#4472C4"/><text fill="#FFFFFF" font-family="Calibri,Calibri_MSFontService,sans-serif" font-weight="400" font-size="16" transform="translate(378.361 310)">Store data</text><rect x="331.5" y="353.5" width="161" height="38" stroke="#787878" stroke-width="1.33333" stroke-miterlimit="8" fill="#A5A5A5"/><text fill="#FFFFFF" font-family="Calibri,Calibri_MSFontService,sans-serif" font-weight="400" font-size="16" transform="translate(395.758 378)">Alert</text><rect x="331.5" y="427.5" width="161" height="38" stroke="#2F528F" stroke-width="1.33333" stroke-miterlimit="8" fill="#4472C4"/><text fill="#FFFFFF" font-family="Calibri,Calibri_MSFontService,sans-serif" font-weight="400" font-size="16" transform="translate(346.804 442)">Interpolate weather <tspan font-size="16" x="50.54" y="19">data</tspan></text><rect x="533.5" y="427.5" width="160" height="38" stroke="#2F528F" stroke-width="1.33333" stroke-miterlimit="8" fill="#4472C4"/><text fill="#FFFFFF" font-family="Calibri,Calibri_MSFontService,sans-serif" font-weight="400" font-size="16" transform="translate(579.553 451)">Store data</text><path d="M0.236231-0.235173 63.2003 63.0122 62.7278 63.4825-0.236231 0.235173ZM64.8581 59.4804 67.6675 67.972 59.1886 65.1245Z" fill="#4472C4" transform="matrix(1 0 0 -1 264.5 372.472)"/><path d="M264.5 372.167 325.501 372.167 325.501 372.833 264.5 372.833ZM324.168 368.5 332.168 372.5 324.168 376.5Z" fill="#4472C4"/><path d="M264.745 372.274 327.896 440.839 327.406 441.29 264.255 372.726ZM329.69 437.374 332.168 445.968 323.806 442.794Z" fill="#4472C4"/><path d="M440.5 446.167 526.088 446.167 526.088 446.833 440.5 446.833ZM524.755 442.5 532.755 446.5 524.755 450.5Z" fill="#4472C4"/><path d="M536.5 279.833C536.5 273.022 551.051 267.5 569 267.5 586.949 267.5 601.5 273.022 601.5 279.833L601.5 329.167C601.5 335.978 586.949 341.5 569 341.5 551.051 341.5 536.5 335.978 536.5 329.167Z" fill="#4472C4" fill-rule="evenodd"/><path d="M601.5 279.833C601.5 286.645 586.949 292.167 569 292.167 551.051 292.167 536.5 286.645 536.5 279.833" stroke="#2F528F" stroke-width="1.33333" stroke-miterlimit="8" fill="none" fill-rule="evenodd"/><path d="M536.5 279.833C536.5 273.022 551.051 267.5 569 267.5 586.949 267.5 601.5 273.022 601.5 279.833L601.5 329.167C601.5 335.978 586.949 341.5 569 341.5 551.051 341.5 536.5 335.978 536.5 329.167Z" stroke="#2F528F" stroke-width="1.33333" stroke-miterlimit="8" fill="none" fill-rule="evenodd"/><text fill="#FFFFFF" font-family="Calibri,Calibri_MSFontService,sans-serif" font-weight="400" font-size="16" transform="translate(554.317 306)">Raw <tspan font-size="16" x="-0.466675" y="19">data</tspan></text><path d="M734.5 421.833C734.5 415.022 758.453 409.5 788 409.5 817.547 409.5 841.5 415.022 841.5 421.833L841.5 471.167C841.5 477.978 817.547 483.5 788 483.5 758.453 483.5 734.5 477.978 734.5 471.167Z" fill="#4472C4" fill-rule="evenodd"/><path d="M841.5 421.833C841.5 428.645 817.547 434.167 788 434.167 758.453 434.167 734.5 428.645 734.5 421.833" stroke="#2F528F" stroke-width="1.33333" stroke-miterlimit="8" fill="none" fill-rule="evenodd"/><path d="M734.5 421.833C734.5 415.022 758.453 409.5 788 409.5 817.547 409.5 841.5 415.022 841.5 421.833L841.5 471.167C841.5 477.978 817.547 483.5 788 483.5 758.453 483.5 734.5 477.978 734.5 471.167Z" stroke="#2F528F" stroke-width="1.33333" stroke-miterlimit="8" fill="none" fill-rule="evenodd"/><text fill="#FFFFFF" font-family="Calibri,Calibri_MSFontService,sans-serif" font-weight="400" font-size="16" transform="translate(747.24 448)">Interpolated <tspan font-size="16" x="25.8467" y="19">data</tspan></text><path d="M693.5 446.167 728.031 446.167 728.031 446.833 693.5 446.833ZM726.697 442.5 734.697 446.5 726.697 450.5Z" fill="#4472C4"/><path d="M492.5 304.167 529.762 304.167 529.762 304.833 492.5 304.833ZM528.429 300.5 536.429 304.5 528.429 308.5Z" fill="#4472C4"/><path d="M691.5 269.834C691.5 260.261 699.261 252.5 708.834 252.5L867.166 252.5C876.74 252.5 884.5 260.261 884.5 269.834L884.5 339.166C884.5 348.739 876.74 356.5 867.166 356.5L708.834 356.5C699.261 356.5 691.5 348.739 691.5 339.166Z" stroke="#787878" stroke-width="1.33333" stroke-miterlimit="8" fill="#A5A5A5" fill-rule="evenodd"/><text fill="#FFFFFF" font-family="Calibri,Calibri_MSFontService,sans-serif" font-weight="400" font-size="16" transform="translate(752.232 310)">Dashboard</text><path d="M601.5 304.167 685.025 304.167 685.025 304.833 601.5 304.833ZM683.692 300.5 691.692 304.5 683.692 308.5Z" fill="#4472C4"/><path d="M787.215 408.941 787.173 363.167 787.84 363.166 787.882 408.94ZM783.507 364.504 787.5 356.5 791.507 364.496Z" fill="#4472C4"/><text font-family="Calibri,Calibri_MSFontService,sans-serif" font-weight="400" font-size="24" transform="translate(447.76 380)">???<tspan font-size="24" x="385.577" y="-101">???</tspan></text><path d="M112.931 369.115C110.813 360.501 121.717 352.567 137.287 351.395 143.595 350.92 150.01 351.63 155.503 353.411 161.324 347.339 174.927 345.032 185.885 348.257 187.801 348.821 189.56 349.536 191.106 350.379 195.64 345.346 206.683 343.302 215.771 345.812 218.286 346.507 220.481 347.512 222.185 348.75 229.492 343.99 242.405 343.402 251.025 347.437 254.649 349.132 257.091 351.471 257.933 354.052 269.905 355.859 276.968 362.707 273.708 369.345 273.434 369.904 273.09 370.45 272.679 370.982 282.282 377.9 279.931 387.815 267.429 393.128 263.537 394.782 258.941 395.852 254.083 396.237 253.975 403.679 242.976 409.664 229.516 409.604 225.02 409.584 220.62 408.877 216.805 407.56 212.253 415.904 196.373 420.62 181.337 418.093 175.035 417.034 169.591 414.796 165.932 411.758 150.537 416.897 130.554 414.133 121.3 405.584 121.183 405.476 121.069 405.368 120.956 405.259 110.881 405.912 101.754 401.933 100.572 396.372 99.9412 393.409 101.709 390.442 105.404 388.263 96.6804 385.421 93.7499 379.183 98.8588 374.329 101.806 371.53 106.976 369.679 112.777 369.346Z" fill="#4472C4" fill-rule="evenodd"/><path d="M129.663 404.3C129.663 405.435 128.743 406.355 127.608 406.355 126.472 406.355 125.552 405.435 125.552 404.3 125.552 403.164 126.472 402.244 127.608 402.244 128.743 402.244 129.663 403.164 129.663 404.3Z" fill="#4472C4" fill-rule="evenodd"/><path d="M130.82 404.641C130.82 406.912 128.98 408.753 126.709 408.753 124.439 408.753 122.598 406.912 122.598 404.641 122.598 402.371 124.439 400.53 126.709 400.53 128.98 400.53 130.82 402.371 130.82 404.641Z" fill="#4472C4" fill-rule="evenodd"/><path d="M128.135 406.446C128.135 409.852 125.375 412.613 121.969 412.613 118.563 412.613 115.802 409.852 115.802 406.446 115.802 403.04 118.563 400.279 121.969 400.279 125.375 400.279 128.135 403.04 128.135 406.446Z" fill="#4472C4" fill-rule="evenodd"/><path d="M112.931 369.115C110.813 360.501 121.717 352.567 137.287 351.395 143.595 350.92 150.01 351.63 155.503 353.411 161.324 347.339 174.927 345.032 185.885 348.257 187.801 348.821 189.56 349.536 191.106 350.379 195.64 345.346 206.683 343.302 215.771 345.812 218.286 346.507 220.481 347.512 222.185 348.75 229.492 343.99 242.405 343.402 251.025 347.437 254.649 349.132 257.091 351.471 257.933 354.052 269.905 355.859 276.968 362.707 273.708 369.345 273.434 369.904 273.09 370.45 272.679 370.982 282.282 377.9 279.931 387.815 267.429 393.128 263.537 394.782 258.941 395.852 254.083 396.237 253.975 403.679 242.976 409.664 229.516 409.604 225.02 409.584 220.62 408.877 216.805 407.56 212.253 415.904 196.373 420.62 181.337 418.093 175.035 417.034 169.591 414.796 165.932 411.758 150.537 416.897 130.554 414.133 121.3 405.584 121.183 405.476 121.069 405.368 120.956 405.259 110.881 405.912 101.754 401.933 100.572 396.372 99.9412 393.409 101.709 390.442 105.404 388.263 96.6804 385.421 93.7499 379.183 98.8588 374.329 101.806 371.53 106.976 369.679 112.777 369.346Z" stroke="#2F528F" stroke-width="1.33333" stroke-miterlimit="8" fill="none" fill-rule="evenodd"/><path d="M129.663 404.3C129.663 405.435 128.743 406.355 127.608 406.355 126.472 406.355 125.552 405.435 125.552 404.3 125.552 403.164 126.472 402.244 127.608 402.244 128.743 402.244 129.663 403.164 129.663 404.3Z" stroke="#2F528F" stroke-width="1.33333" stroke-miterlimit="8" fill="none" fill-rule="evenodd"/><path d="M130.82 404.641C130.82 406.912 128.98 408.753 126.709 408.753 124.439 408.753 122.598 406.912 122.598 404.641 122.598 402.371 124.439 400.53 126.709 400.53 128.98 400.53 130.82 402.371 130.82 404.641Z" stroke="#2F528F" stroke-width="1.33333" stroke-miterlimit="8" fill="none" fill-rule="evenodd"/><path d="M128.135 406.446C128.135 409.852 125.375 412.613 121.969 412.613 118.563 412.613 115.802 409.852 115.802 406.446 115.802 403.04 118.563 400.279 121.969 400.279 125.375 400.279 128.135 403.04 128.135 406.446Z" stroke="#2F528F" stroke-width="1.33333" stroke-miterlimit="8" fill="none" fill-rule="evenodd"/><path d="M116.271 389.34C112.547 389.502 108.823 389.025 105.6 387.975M125.687 404.281C124.19 404.611 122.62 404.83 121.018 404.934M165.921 411.46C164.795 410.525 163.852 409.526 163.108 408.479M217.947 404.027C217.781 405.136 217.405 406.233 216.824 407.298M240.284 383.819C248.729 386.094 254.058 390.849 253.982 396.042M272.593 370.801C271.226 372.569 269.138 374.138 266.494 375.384M257.958 353.795C258.191 354.509 258.298 355.234 258.28 355.959M219.005 351.27C219.799 350.271 220.852 349.341 222.129 348.509M189.779 352.585C190.104 351.76 190.612 350.96 191.293 350.204M155.482 353.394C157.469 354.038 159.308 354.814 160.958 355.703M113.887 371.546C113.453 370.751 113.133 369.939 112.931 369.116" stroke="#2F528F" stroke-width="1.33333" stroke-miterlimit="8" fill="none" fill-rule="evenodd"/><text fill="#FFFFFF" font-family="Calibri,Calibri_MSFontService,sans-serif" font-weight="400" font-size="16" transform="translate(145.331 375)">Watering + <tspan font-size="16" x="-8.81999" y="19">Weather data</tspan></text></g></svg>